<?xml version="1.0" encoding="UTF-8"?>
<svg version="1.1" xmlns="http://www.w3.org/2000/svg" width="500" height="500">
<path d="M0 0 C1.0264563 -0.00281982 2.0529126 -0.00563965 3.11047363 -0.00854492 C4.24609741 -0.00652069 5.38172119 -0.00449646 6.55175781 -0.00241089 C7.74023315 -0.00416321 8.9287085 -0.00591553 10.15319824 -0.00772095 C13.42171057 -0.01137906 16.6901827 -0.01050607 19.95869446 -0.00734186 C23.37220345 -0.00481783 26.78570966 -0.00715592 30.19921875 -0.00872803 C35.93262213 -0.0105496 41.66601264 -0.00814375 47.39941406 -0.00338745 C54.03694057 0.00205515 60.67443637 0.00029248 67.31196213 -0.00521386 C73.00112548 -0.00974535 78.69027955 -0.01039536 84.37944412 -0.00777519 C87.78157302 -0.00621261 91.18368745 -0.00601811 94.58581543 -0.00931168 C98.37656769 -0.01183645 102.16726004 -0.00800007 105.95800781 -0.00241089 C107.66144348 -0.00544724 107.66144348 -0.00544724 109.39929199 -0.00854492 C110.42574829 -0.0057251 111.45220459 -0.00290527 112.50976562 0 C113.40721497 0.00037703 114.30466431 0.00075405 115.22930908 0.0011425 C117.25488281 0.12698364 117.25488281 0.12698364 118.25488281 1.12698364 C119.77995827 1.25976942 121.31057357 1.3302743 122.84082031 1.37307739 C123.77152344 1.40594849 124.70222656 1.43881958 125.66113281 1.47268677 C127.63237717 1.53363972 129.60373734 1.59096112 131.57519531 1.64456177 C132.50847656 1.67872192 133.44175781 1.71288208 134.40332031 1.74807739 C135.68988525 1.78566162 135.68988525 1.78566162 137.00244141 1.82400513 C139.25488281 2.12698364 139.25488281 2.12698364 142.25488281 4.12698364 C145.89341473 4.74339376 149.53418338 5.14465405 153.20019531 5.56448364 C154.71226562 5.84292114 154.71226562 5.84292114 156.25488281 6.12698364 C156.58488281 6.78698364 156.91488281 7.44698364 157.25488281 8.12698364 C160.20003894 8.55940476 160.20003894 8.55940476 163.62988281 8.68948364 C169.97673712 9.03426841 169.97673712 9.03426841 173.25488281 10.12698364 C173.58488281 10.78698364 173.91488281 11.44698364 174.25488281 12.12698364 C176.31590516 12.51837042 176.31590516 12.51837042 178.69238281 12.62698364 C183.03361352 12.90571435 183.03361352 12.90571435 185.25488281 15.12698364 C186.43050781 15.45698364 187.60613281 15.78698364 188.81738281 16.12698364 C189.95175781 16.45698364 191.08613281 16.78698364 192.25488281 17.12698364 C192.58488281 17.78698364 192.91488281 18.44698364 193.25488281 19.12698364 C194.86363281 19.34354614 194.86363281 19.34354614 196.50488281 19.56448364 C200.29518968 20.13302967 202.13365645 21.01804691 205.25488281 23.12698364 C206.58097103 23.80794786 207.91174882 24.4802895 209.25488281 25.12698364 C209.25488281 25.78698364 209.25488281 26.44698364 209.25488281 27.12698364 C210.57488281 27.12698364 211.89488281 27.12698364 213.25488281 27.12698364 C213.58488281 28.11698364 213.91488281 29.10698364 214.25488281 30.12698364 C215.24488281 30.45698364 216.23488281 30.78698364 217.25488281 31.12698364 C217.25488281 32.11698364 217.25488281 33.10698364 217.25488281 34.12698364 C218.24488281 34.12698364 219.23488281 34.12698364 220.25488281 34.12698364 C220.58488281 35.11698364 220.91488281 36.10698364 221.25488281 37.12698364 C222.24488281 37.45698364 223.23488281 37.78698364 224.25488281 38.12698364 C225.31738281 39.76370239 225.31738281 39.76370239 226.25488281 41.81448364 C227.43041108 44.3554332 228.61195675 46.75186303 230.00488281 49.18948364 C231.48984516 52.67914517 231.48017308 55.37214593 231.25488281 59.12698364 C232.24488281 59.12698364 233.23488281 59.12698364 234.25488281 59.12698364 C235.86213916 62.34149633 235.31236466 65.563109 235.25488281 69.12698364 C236.24488281 69.45698364 237.23488281 69.78698364 238.25488281 70.12698364 C238.25488281 73.75698364 238.25488281 77.38698364 238.25488281 81.12698364 C239.24488281 81.12698364 240.23488281 81.12698364 241.25488281 81.12698364 C242.19108094 84.28204506 242.36059511 87.09284866 242.31738281 90.37698364 C242.30835938 91.26901489 242.29933594 92.16104614 242.29003906 93.08010864 C242.27263672 94.09331177 242.27263672 94.09331177 242.25488281 95.12698364 C243.24488281 95.45698364 244.23488281 95.78698364 245.25488281 96.12698364 C245.25488281 101.73698364 245.25488281 107.34698364 245.25488281 113.12698364 C246.24488281 113.12698364 247.23488281 113.12698364 248.25488281 113.12698364 C249.17146664 116.2975156 249.4432032 119.25522226 249.57128906 122.54885864 C249.61318359 123.57366333 249.65507812 124.59846802 249.69824219 125.65432739 C249.73755859 126.71780396 249.776875 127.78128052 249.81738281 128.87698364 C249.86056641 129.95592896 249.90375 131.03487427 249.94824219 132.14651489 C250.05417271 134.80654793 250.15624702 137.46667176 250.25488281 140.12698364 C250.91488281 140.45698364 251.57488281 140.78698364 252.25488281 141.12698364 C252.27822308 155.30427333 252.29580111 169.48156004 252.30669498 183.65886497 C252.31192243 190.24134358 252.3190176 196.82380932 252.33032227 203.40628052 C252.34115601 209.75398511 252.34716069 216.10167729 252.34976006 222.44939041 C252.35161342 224.87598491 252.35523235 227.3025787 252.36061287 229.72916794 C252.36782973 233.11748494 252.36887348 236.50575009 252.3684082 239.89407349 C252.37200348 240.90611343 252.37559875 241.91815338 252.37930298 242.96086121 C252.37792831 243.88075333 252.37655365 244.80064545 252.37513733 245.74841309 C252.37652002 246.95135293 252.37652002 246.95135293 252.37793064 248.17859459 C252.25488281 250.12698364 252.25488281 250.12698364 251.25488281 252.12698364 C250.59488281 252.12698364 249.93488281 252.12698364 249.25488281 252.12698364 C249.26273804 253.06550171 249.26273804 253.06550171 249.27075195 254.02297974 C249.29149899 256.84930421 249.30453567 259.67561269 249.31738281 262.50198364 C249.32576172 263.48682739 249.33414062 264.47167114 249.34277344 265.48635864 C249.34760742 266.89788208 249.34760742 266.89788208 249.35253906 268.33792114 C249.36039429 269.64188843 249.36039429 269.64188843 249.3684082 270.97219849 C249.25488281 273.12698364 249.25488281 273.12698364 248.25488281 275.12698364 C247.26488281 275.12698364 246.27488281 275.12698364 245.25488281 275.12698364 C245.26648438 276.31936646 245.27808594 277.51174927 245.29003906 278.74026489 C245.29941873 280.30666958 245.30851874 281.87307595 245.31738281 283.43948364 C245.32576172 284.22516724 245.33414062 285.01085083 245.34277344 285.82034302 C245.34760742 286.95632935 245.34760742 286.95632935 245.35253906 288.11526489 C245.35777588 288.81176147 245.3630127 289.50825806 245.3684082 290.2258606 C245.25488281 292.12698364 245.25488281 292.12698364 244.25488281 295.12698364 C243.59488281 295.12698364 242.93488281 295.12698364 242.25488281 295.12698364 C242.27808594 295.80245239 242.30128906 296.47792114 242.32519531 297.17385864 C242.34324219 298.06588989 242.36128906 298.95792114 242.37988281 299.87698364 C242.40308594 300.75870239 242.42628906 301.64042114 242.45019531 302.54885864 C242.24627783 305.24056944 241.62040003 306.82603338 240.25488281 309.12698364 C239.59488281 309.12698364 238.93488281 309.12698364 238.25488281 309.12698364 C238.27228516 310.06671021 238.27228516 310.06671021 238.29003906 311.02542114 C238.30357422 312.25131958 238.30357422 312.25131958 238.31738281 313.50198364 C238.32898438 314.31409302 238.34058594 315.12620239 238.35253906 315.96292114 C238.25488281 318.12698364 238.25488281 318.12698364 237.25488281 320.12698364 C236.59488281 320.12698364 235.93488281 320.12698364 235.25488281 320.12698364 C235.31675781 321.73573364 235.31675781 321.73573364 235.37988281 323.37698364 C235.26630032 326.78445849 235.04214918 328.33437995 233.25488281 331.12698364 C232.59488281 331.12698364 231.93488281 331.12698364 231.25488281 331.12698364 C231.25488281 333.10698364 231.25488281 335.08698364 231.25488281 337.12698364 C230.26488281 337.45698364 229.27488281 337.78698364 228.25488281 338.12698364 C228.35800781 338.95198364 228.46113281 339.77698364 228.56738281 340.62698364 C228.14862368 345.31708592 226.14113317 348.4623203 223.25488281 352.12698364 C222.59488281 352.45698364 221.93488281 352.78698364 221.25488281 353.12698364 C220.92488281 354.11698364 220.59488281 355.10698364 220.25488281 356.12698364 C219.26488281 356.12698364 218.27488281 356.12698364 217.25488281 356.12698364 C216.92488281 357.44698364 216.59488281 358.76698364 216.25488281 360.12698364 C215.26488281 360.12698364 214.27488281 360.12698364 213.25488281 360.12698364 C212.92488281 361.11698364 212.59488281 362.10698364 212.25488281 363.12698364 C210.60488281 363.45698364 208.95488281 363.78698364 207.25488281 364.12698364 C206.92488281 365.11698364 206.59488281 366.10698364 206.25488281 367.12698364 C204.93488281 367.12698364 203.61488281 367.12698364 202.25488281 367.12698364 C201.92488281 368.11698364 201.59488281 369.10698364 201.25488281 370.12698364 C198.28488281 370.45698364 195.31488281 370.78698364 192.25488281 371.12698364 C191.92488281 372.11698364 191.59488281 373.10698364 191.25488281 374.12698364 C187.95488281 374.12698364 184.65488281 374.12698364 181.25488281 374.12698364 C180.92488281 375.11698364 180.59488281 376.10698364 180.25488281 377.12698364 C176.78163101 378.28473424 173.89420834 378.19565016 170.25488281 378.12698364 C170.25488281 378.78698364 170.25488281 379.44698364 170.25488281 380.12698364 C169.32804687 380.24815552 168.40121094 380.36932739 167.44628906 380.49417114 C166.24875 380.66174927 165.05121094 380.82932739 163.81738281 381.00198364 C162.62242187 381.16440552 161.42746094 381.32682739 160.19628906 381.49417114 C159.225625 381.70299927 158.25496094 381.91182739 157.25488281 382.12698364 C156.92488281 382.78698364 156.59488281 383.44698364 156.25488281 384.12698364 C152.62672012 385.52717264 148.84012698 385.22499516 145.00488281 385.18948364 C143.74160156 385.18046021 142.47832031 385.17143677 141.17675781 385.16213989 C140.21253906 385.15053833 139.24832031 385.13893677 138.25488281 385.12698364 C138.25488281 385.78698364 138.25488281 386.44698364 138.25488281 387.12698364 C135.58934844 388.0154951 133.81285111 388.29429642 131.05957031 388.40823364 C130.26164062 388.44561646 129.46371094 388.48299927 128.64160156 388.52151489 C126.95932361 388.59215487 125.27703176 388.66246435 123.59472656 388.73245239 C119.60109273 388.52956874 119.60109273 388.52956874 116.25488281 390.12698364 C113.14090872 390.28877102 110.04716564 390.38720638 106.93066406 390.44338989 C105.97075562 390.46426163 105.01084717 390.48513336 104.02185059 390.50663757 C100.87044688 390.57320159 97.71896294 390.63191647 94.56738281 390.68948364 C92.9525148 390.72075348 92.9525148 390.72075348 91.30502319 390.75265503 C59.25621366 391.37185474 27.29558735 390.95248076 -4.74511719 390.12698364 C-4.74511719 389.46698364 -4.74511719 388.80698364 -4.74511719 388.12698364 C-5.34050293 388.13745728 -5.93588867 388.14793091 -6.54931641 388.15872192 C-9.23954061 388.20022314 -11.92969755 388.22629069 -14.62011719 388.25198364 C-15.55726563 388.26874146 -16.49441406 388.28549927 -17.45996094 388.30276489 C-18.35585937 388.30921021 -19.25175781 388.31565552 -20.17480469 388.32229614 C-21.00222168 388.33276978 -21.82963867 388.34324341 -22.68212891 388.35403442 C-24.74511719 388.12698364 -24.74511719 388.12698364 -26.74511719 386.12698364 C-29.04862565 385.85010592 -31.3652526 385.6768842 -33.68261719 385.56448364 C-40.46340987 385.22088608 -40.46340987 385.22088608 -43.74511719 384.12698364 C-43.74511719 383.13698364 -43.74511719 382.14698364 -43.74511719 381.12698364 C-45.0096875 381.14438599 -45.0096875 381.14438599 -46.29980469 381.16213989 C-47.39550781 381.17116333 -48.49121094 381.18018677 -49.62011719 381.18948364 C-51.2559375 381.20688599 -51.2559375 381.20688599 -52.92480469 381.22463989 C-55.74511719 381.12698364 -55.74511719 381.12698364 -57.74511719 380.12698364 C-57.74511719 379.46698364 -57.74511719 378.80698364 -57.74511719 378.12698364 C-59.73079427 378.15953573 -61.71647135 378.19208781 -63.70214844 378.22463989 C-65.74511719 378.12698364 -65.74511719 378.12698364 -68.74511719 377.12698364 C-68.74511719 376.13698364 -68.74511719 375.14698364 -68.74511719 374.12698364 C-72.04511719 374.12698364 -75.34511719 374.12698364 -78.74511719 374.12698364 C-79.24011719 372.64198364 -79.24011719 372.64198364 -79.74511719 371.12698364 C-82.71511719 370.79698364 -85.68511719 370.46698364 -88.74511719 370.12698364 C-89.24011719 368.64198364 -89.24011719 368.64198364 -89.74511719 367.12698364 C-91.72511719 366.79698364 -93.70511719 366.46698364 -95.74511719 366.12698364 C-96.24011719 364.64198364 -96.24011719 364.64198364 -96.74511719 363.12698364 C-98.76020077 362.39374568 -98.76020077 362.39374568 -100.74511719 362.12698364 C-100.74511719 361.46698364 -100.74511719 360.80698364 -100.74511719 360.12698364 C-102.06511719 359.79698364 -103.38511719 359.46698364 -104.74511719 359.12698364 C-104.74511719 358.13698364 -104.74511719 357.14698364 -104.74511719 356.12698364 C-105.73511719 356.12698364 -106.72511719 356.12698364 -107.74511719 356.12698364 C-107.74511719 355.13698364 -107.74511719 354.14698364 -107.74511719 353.12698364 C-109.06511719 352.46698364 -110.38511719 351.80698364 -111.74511719 351.12698364 C-111.74511719 350.13698364 -111.74511719 349.14698364 -111.74511719 348.12698364 C-112.40511719 348.12698364 -113.06511719 348.12698364 -113.74511719 348.12698364 C-114.46126302 346.40172323 -115.17740885 344.67646281 -115.89355469 342.95120239 C-116.8131841 340.86164432 -116.8131841 340.86164432 -118.74511719 338.12698364 C-118.82416783 335.79498977 -118.83310488 333.45865742 -118.74511719 331.12698364 C-119.73511719 331.12698364 -120.72511719 331.12698364 -121.74511719 331.12698364 C-122.20084635 329.14130656 -122.65657552 327.15562948 -123.11230469 325.16995239 C-123.72519442 322.8495539 -123.72519442 322.8495539 -125.74511719 320.12698364 C-126.15519616 318.59923845 -126.5066426 317.05491134 -126.80761719 315.50198364 C-127.21605735 312.52928713 -127.21605735 312.52928713 -128.74511719 310.12698364 C-129.28332719 307.09672562 -129.7106854 304.05621376 -130.14746094 301.00979614 C-130.59492194 297.94684551 -130.59492194 297.94684551 -132.74511719 295.12698364 C-133.15607417 292.50998677 -133.4874373 289.94615881 -133.74511719 287.31448364 C-134.13260484 283.42166787 -134.49815055 279.84722474 -135.77246094 276.13088989 C-136.99758125 272.34728539 -137.15925301 268.82853688 -137.30761719 264.87698364 C-137.32922015 259.84835667 -137.32922015 259.84835667 -138.74511719 255.12698364 C-138.8399196 253.52008519 -138.87141828 251.90926822 -138.87210083 250.29957581 C-138.87492065 249.280159 -138.87774048 248.26074219 -138.88064575 247.21043396 C-138.87862152 246.0877562 -138.87659729 244.96507843 -138.87451172 243.80838013 C-138.87626404 242.62951233 -138.87801636 241.45064453 -138.87982178 240.23605347 C-138.88347578 236.99859093 -138.88260964 233.7611691 -138.87944269 230.52370715 C-138.87691597 227.14090052 -138.87925745 223.75809666 -138.88082886 220.37528992 C-138.88264939 214.6949413 -138.88024703 209.01460568 -138.87548828 203.33425903 C-138.87004327 196.75862762 -138.87181052 190.1830272 -138.87731469 183.60739654 C-138.88184601 177.969168 -138.88249635 172.33094881 -138.87987602 166.69271904 C-138.87831369 163.32190414 -138.87811834 159.95110382 -138.88141251 156.58028984 C-138.88393716 152.82556909 -138.8801012 149.07090884 -138.87451172 145.31619263 C-138.87653595 144.19149063 -138.87856018 143.06678864 -138.88064575 141.90800476 C-138.87782593 140.89140778 -138.8750061 139.87481079 -138.87210083 138.82740784 C-138.8717238 137.93863166 -138.87134678 137.04985548 -138.87095833 136.13414669 C-138.74511719 134.12698364 -138.74511719 134.12698364 -137.74511719 133.12698364 C-137.58274832 130.54110914 -137.46583072 127.96541044 -137.37011719 125.37698364 C-137.05786647 118.74391602 -136.17005414 112.6044959 -134.51074219 106.15432739 C-133.33974275 101.52410001 -132.54672979 96.83292119 -131.74511719 92.12698364 C-131.08511719 92.12698364 -130.42511719 92.12698364 -129.74511719 92.12698364 C-129.69613281 91.29553833 -129.64714844 90.46409302 -129.59667969 89.60745239 C-129.52191406 88.52077271 -129.44714844 87.43409302 -129.37011719 86.31448364 C-129.30050781 85.23553833 -129.23089844 84.15659302 -129.15917969 83.04495239 C-128.74511719 80.12698364 -128.74511719 80.12698364 -126.74511719 77.12698364 C-126.14820846 74.53208874 -125.73415553 71.934452 -125.30761719 69.30667114 C-125.12199219 68.58737427 -124.93636719 67.86807739 -124.74511719 67.12698364 C-123.75511719 66.63198364 -123.75511719 66.63198364 -122.74511719 66.12698364 C-122.05782465 64.00852079 -122.05782465 64.00852079 -121.62011719 61.56448364 C-121.45253906 60.73819458 -121.28496094 59.91190552 -121.11230469 59.06057739 C-120.99113281 58.42249146 -120.86996094 57.78440552 -120.74511719 57.12698364 C-120.41511719 57.12698364 -120.08511719 57.12698364 -119.74511719 57.12698364 C-119.64199219 56.01323364 -119.53886719 54.89948364 -119.43261719 53.75198364 C-119.20574219 52.55573364 -118.97886719 51.35948364 -118.74511719 50.12698364 C-117.75511719 49.46698364 -116.76511719 48.80698364 -115.74511719 48.12698364 C-114.53226843 45.07269292 -114.53226843 45.07269292 -113.74511719 42.12698364 C-113.08511719 42.12698364 -112.42511719 42.12698364 -111.74511719 42.12698364 C-111.62136719 41.48760864 -111.49761719 40.84823364 -111.37011719 40.18948364 C-111.06074219 39.16854614 -111.06074219 39.16854614 -110.74511719 38.12698364 C-109.75511719 37.63198364 -109.75511719 37.63198364 -108.74511719 37.12698364 C-108.41511719 36.13698364 -108.08511719 35.14698364 -107.74511719 34.12698364 C-106.75511719 34.12698364 -105.76511719 34.12698364 -104.74511719 34.12698364 C-104.41511719 33.13698364 -104.08511719 32.14698364 -103.74511719 31.12698364 C-103.08511719 30.79698364 -102.42511719 30.46698364 -101.74511719 30.12698364 C-101.25011719 28.64198364 -101.25011719 28.64198364 -100.74511719 27.12698364 C-99.42511719 27.12698364 -98.10511719 27.12698364 -96.74511719 27.12698364 C-96.25011719 25.64198364 -96.25011719 25.64198364 -95.74511719 24.12698364 C-93.76511719 23.79698364 -91.78511719 23.46698364 -89.74511719 23.12698364 C-89.25011719 21.64198364 -89.25011719 21.64198364 -88.74511719 20.12698364 C-86.43511719 20.12698364 -84.12511719 20.12698364 -81.74511719 20.12698364 C-81.25011719 18.64198364 -81.25011719 18.64198364 -80.74511719 17.12698364 C-78.93261719 16.46682739 -78.93261719 16.46682739 -76.74511719 16.06448364 C-74.60456421 15.69997492 -74.60456421 15.69997492 -72.74511719 15.12698364 C-72.41511719 14.46698364 -72.08511719 13.80698364 -71.74511719 13.12698364 C-68.44511719 13.12698364 -65.14511719 13.12698364 -61.74511719 13.12698364 C-61.41511719 12.13698364 -61.08511719 11.14698364 -60.74511719 10.12698364 C-57.18466542 8.94016639 -54.30703381 9.03008532 -50.55761719 9.06448364 C-49.2853125 9.07350708 -48.01300781 9.08253052 -46.70214844 9.09182739 C-45.23841797 9.10922974 -45.23841797 9.10922974 -43.74511719 9.12698364 C-43.74511719 8.13698364 -43.74511719 7.14698364 -43.74511719 6.12698364 C-39.12511719 5.79698364 -34.50511719 5.46698364 -29.74511719 5.12698364 C-29.74511719 4.46698364 -29.74511719 3.80698364 -29.74511719 3.12698364 C-26.88682001 2.17421792 -24.87262779 1.95094983 -21.89355469 1.84573364 C-20.96027344 1.80835083 -20.02699219 1.77096802 -19.06542969 1.73245239 C-17.09408551 1.66186049 -15.12273122 1.59155019 -13.15136719 1.52151489 C-12.22066406 1.48413208 -11.28996094 1.44674927 -10.33105469 1.40823364 C-9.47560059 1.37794067 -8.62014648 1.34764771 -7.73876953 1.31643677 C-4.84927221 1.04185314 -3.26865469 0.00137319 0 0 Z " fill="#326F64" transform="translate(183.7451171875,69.87301635742188)"/>
<path d="M0 0 C7.92 0 15.84 0 24 0 C24 41.25 24 82.5 24 125 C26.31 124.01 28.62 123.02 31 122 C31.33 99.23 31.66 76.46 32 53 C38.42870294 53 39.18876472 53.34346119 44 57 C45.3326908 58.00085614 46.66605827 59.00081171 48 60 C49.02287109 60.77730469 49.02287109 60.77730469 50.06640625 61.5703125 C51.6440812 62.7368358 53.28360266 63.81932085 54.9375 64.875 C63.41802279 70.75944439 70.90888217 77.97483657 76 87 C76.721875 87.928125 77.44375 88.85625 78.1875 89.8125 C80.5365616 93.94360834 80.32282753 96.31900078 80 101 C79.34 101.33 78.68 101.66 78 102 C76.95191959 103.97522846 75.9479589 105.97481509 75 108 C74.34 108 73.68 108 73 108 C72.66802612 108.8187561 72.66802612 108.8187561 72.3293457 109.65405273 C70.58006514 112.74107513 68.22887439 115.05702206 65.73046875 117.53515625 C65.21245193 118.05508652 64.69443512 118.57501678 64.16072083 119.11070251 C63.0662294 120.2065517 61.9692211 121.29989216 60.86987305 122.39086914 C59.19671374 124.05334509 57.53445749 125.72618289 55.87304688 127.40039062 C54.80532795 128.46678746 53.73698852 129.53256347 52.66796875 130.59765625 C52.17507858 131.09459488 51.68218842 131.59153351 51.17436218 132.10353088 C48.31646776 134.9233877 45.47659466 137.01449392 42 139 C41.319375 139.721875 40.63875 140.44375 39.9375 141.1875 C38 143 38 143 34 143 C34 143.66 34 144.32 34 145 C31 147 31 147 27 147 C26.79375 147.5775 26.5875 148.155 26.375 148.75 C24.86747404 151.21686066 23.26747737 152.36206995 20.83203125 153.8671875 C18.71344495 155.17718756 16.67762561 156.58904146 14.625 158 C11.66343271 159.98776381 8.71473336 161.7060062 5.5 163.25 C1.95833333 164.58333333 1.95833333 164.58333333 1 167 C-1.05581027 167.87981711 -3.14593028 168.68031796 -5.25 169.4375 C-9.48488643 170.96569997 -13.17699271 172.63081238 -17 175 C-18.33333333 175.33333333 -19.66666667 175.66666667 -21 176 C-21.33 176.66 -21.66 177.32 -22 178 C-23.92578125 179.0703125 -23.92578125 179.0703125 -26.3125 180.125 C-27.48232422 180.65480469 -27.48232422 180.65480469 -28.67578125 181.1953125 C-31 182 -31 182 -35 182 C-35 182.66 -35 183.32 -35 184 C-37.31 184 -39.62 184 -42 184 C-42.33 184.99 -42.66 185.98 -43 187 C-47.69593426 189.95596704 -52.42313253 191.57198641 -58 191 C-58.33 191.99 -58.66 192.98 -59 194 C-63.14997171 196.75353573 -68.30921628 197.2279728 -73.1015625 198.21875 C-76.10138497 198.76890955 -76.10138497 198.76890955 -78 201 C-79.6680636 201.58007536 -81.35958924 202.09450582 -83.0625 202.5625 C-86.3121143 203.2711258 -86.3121143 203.2711258 -89 205 C-91.91179131 205.31478825 -93.61350511 205.19324745 -96.25 203.875 C-98.57480008 201.38414277 -98.70375958 199.33270475 -99 196 C-95.80649965 194.00406228 -92.80184986 193.67231824 -89.1015625 193.27734375 C-85.90383005 192.85533817 -83.04949882 192.05798939 -80 191 C-79.67 190.34 -79.34 189.68 -79 189 C-76.67016875 188.25643684 -74.3644003 187.6144051 -72 187 C-70.22630497 186.51024839 -68.4555071 186.0099035 -66.6875 185.5 C-65.42486328 185.14421875 -65.42486328 185.14421875 -64.13671875 184.78125 C-61.82538033 184.1062401 -61.82538033 184.1062401 -60 182 C-58.33526282 181.53387359 -56.66928093 181.0715387 -54.99609375 180.63671875 C-52.82341911 179.94367381 -50.9497057 179.00732913 -48.9375 177.9375 C-45.62015471 176.18882186 -42.70633572 175.60335698 -39 175 C-38.36384766 174.29230469 -38.36384766 174.29230469 -37.71484375 173.5703125 C-35.31442822 171.37220989 -33.03376885 171.10350548 -29.875 170.4375 C-27.90282318 170.01894449 -25.9388583 169.55271931 -24 169 C-23.67 168.34 -23.34 167.68 -23 167 C-21.68 167 -20.36 167 -19 167 C-19 166.01 -19 165.02 -19 164 C-14.40063507 161.35781164 -9.77724101 158.77275046 -5.11328125 156.24609375 C-2.93867469 155.02916765 -2.93867469 155.02916765 -0.91796875 153.34765625 C1 152 1 152 4 152 C4 151.34 4 150.68 4 150 C4.68320312 149.76796875 5.36640625 149.5359375 6.0703125 149.296875 C9.6671743 147.70466417 12.71418886 145.55662993 15.875 143.25 C16.80590454 142.57892212 16.80590454 142.57892212 17.75561523 141.89428711 C20.96322851 139.56097925 24.07727271 137.17869257 27.0625 134.5625 C29.64488565 132.3097806 32.08255004 130.75046998 35 129 C36.8520162 127.43849614 38.65876673 125.83868486 40.44921875 124.20703125 C42 123 42 123 44 123 C44 122.01 44 121.02 44 120 C46.5 118.3125 46.5 118.3125 49 117 C47.02 117 45.04 117 43 117 C42.731875 117.639375 42.46375 118.27875 42.1875 118.9375 C41 121 41 121 38 122 C38 122.66 38 123.32 38 124 C35.12228205 125.91847864 32.11373372 127.50079488 29 129 C29 129.66 29 130.32 29 131 C27.68 131 26.36 131 25 131 C24.731875 131.639375 24.46375 132.27875 24.1875 132.9375 C23 135 23 135 20 136 C20 136.66 20 137.32 20 138 C18.824375 138.4021875 18.824375 138.4021875 17.625 138.8125 C14.71885077 139.84814432 14.71885077 139.84814432 13 143 C11.33927151 143.68132451 9.672233 144.34742127 8 145 C7.29810547 145.70962891 7.29810547 145.70962891 6.58203125 146.43359375 C4.86114784 148.13748078 3.30074194 149.01695864 1.125 150.0625 C0.42375 150.4028125 -0.2775 150.743125 -1 151.09375 C-2.59627884 151.81706385 -4.23115586 152.45499238 -5.875 153.0625 C-8.33507152 153.9204691 -8.33507152 153.9204691 -10 157 C-13.35282349 158.67641174 -15.16119422 159 -19 159 C-19 159.66 -19 160.32 -19 161 C-20.65 161 -22.3 161 -24 161 C-24.33 161.99 -24.66 162.98 -25 164 C-28.6037898 165.52160014 -31.05220686 166 -35 166 C-35 166.66 -35 167.32 -35 168 C-35.639375 168.12375 -36.27875 168.2475 -36.9375 168.375 C-37.618125 168.58125 -38.29875 168.7875 -39 169 C-39.33 169.66 -39.66 170.32 -40 171 C-42.31939207 171.7136591 -44.65523449 172.3747292 -47 173 C-47.845625 173.37125 -48.69125 173.7425 -49.5625 174.125 C-52.48252424 175.17321383 -54.92100701 175.14320898 -58 175 C-58 175.66 -58 176.32 -58 177 C-62.92984325 179.03993514 -66.57960425 180.40652968 -72 180 C-72 180.66 -72 181.32 -72 182 C-74.31 182 -76.62 182 -79 182 C-79 182.66 -79 183.32 -79 184 C-81.64 184 -84.28 184 -87 184 C-87 184.99 -87 185.98 -87 187 C-89.05078125 187.22786458 -91.1015625 187.45572917 -93.15234375 187.68359375 C-95.01140229 187.81886614 -95.01140229 187.81886614 -96 189 C-98.83972535 189.32351301 -101.68073737 189.5130429 -104.53125 189.71875 C-106.9413605 189.73385265 -106.9413605 189.73385265 -108 191 C-110.53049402 191.07313567 -113.03304837 191.09247527 -115.5625 191.0625 C-116.62887695 191.05573242 -116.62887695 191.05573242 -117.71679688 191.04882812 C-119.47790013 191.03700864 -121.23896036 191.01907263 -123 191 C-123 191.66 -123 192.32 -123 193 C-127.51658714 193.04993675 -132.03302226 193.08597002 -136.54980469 193.10986328 C-138.08205978 193.11983806 -139.61429625 193.13342276 -141.14648438 193.15087891 C-166.15123458 193.42834676 -166.15123458 193.42834676 -173.84765625 186.28515625 C-175.07837542 185.0493828 -176.29206486 183.79630914 -177.484375 182.5234375 C-178.94249846 180.89597348 -178.94249846 180.89597348 -181 180 C-181.08132187 177.43685501 -181.14064175 174.87631582 -181.1875 172.3125 C-181.21263672 171.59126953 -181.23777344 170.87003906 -181.26367188 170.12695312 C-181.32614409 165.56648162 -180.91641976 162.58020538 -178 159 C-177.34 159 -176.68 159 -176 159 C-175.9690625 157.9790625 -175.9690625 157.9790625 -175.9375 156.9375 C-174.72775398 153.14696246 -172.68179725 151.43759559 -169.82421875 148.75390625 C-167.80155828 146.88083445 -167.80155828 146.88083445 -165.5625 144 C-160.18354464 137.70268641 -153.52105216 132.76368786 -147.00390625 127.69921875 C-144.91158643 126.1506363 -144.91158643 126.1506363 -144 124 C-142.41461578 123.34516739 -140.82766984 122.69393653 -139.234375 122.05859375 C-135.46557431 120.27302559 -132.09258566 117.86230029 -128.6484375 115.5234375 C-126.01893686 114.01089288 -123.985336 113.39876329 -121 113 C-122.24695038 116.49146107 -124.06653297 117.88346424 -127.16015625 119.8046875 C-130.19274124 121.77490195 -132.99284142 124.03518261 -135.82421875 126.28125 C-137.12064096 127.30535372 -138.43136166 128.3123325 -139.76953125 129.28125 C-144.0568736 132.49404326 -145.96812947 136.18327162 -148 141 C-148.99 141 -149.98 141 -151 141 C-151.12375 141.721875 -151.2475 142.44375 -151.375 143.1875 C-152 146 -152 146 -153.0625 148.3125 C-154.32356483 151.92755251 -154.72759339 155.25179163 -154 159 C-150.20863886 165.73684091 -145.19785947 167.94346872 -138 170 C-121.17 170.495 -121.17 170.495 -104 171 C-104 146.91 -104 122.82 -104 98 C-95.75 98 -87.5 98 -79 98 C-79 120.77 -79 143.54 -79 167 C-76.69 167 -74.38 167 -72 167 C-72 166.01 -72 165.02 -72 164 C-70.35 164 -68.7 164 -67 164 C-67 130.67 -67 97.34 -67 63 C-59.08 63 -51.16 63 -43 63 C-43 93.36 -43 123.72 -43 155 C-40.69 154.67 -38.38 154.34 -36 154 C-35.505 92.125 -35.505 92.125 -35 29 C-26.75 29 -18.5 29 -10 29 C-10 66.95 -10 104.9 -10 144 C-7.03 143.01 -4.06 142.02 -1 141 C-0.505 71.205 -0.505 71.205 0 0 Z " fill="#FAFBFB" transform="translate(254,139)"/>
<path d="M0 0 C3.94684991 -0.07505712 7.89341427 -0.12902215 11.84082031 -0.16479492 C13.83152905 -0.18701479 15.82203968 -0.22516595 17.8125 -0.26367188 C25.46115497 -0.32161623 31.84633158 0.27434217 39 3 C39.98613281 3.31582031 40.97226562 3.63164062 41.98828125 3.95703125 C47.71785173 6.06589837 50.45908128 8.0427138 54 13 C55.64740076 14.6857124 57.31066078 16.3563186 59 18 C61 20 61 20 61 24 C61.66 24 62.32 24 63 24 C63.309375 25.093125 63.61875 26.18625 63.9375 27.3125 C64.58337897 29.55407994 65.2623117 31.7869351 66 34 C66.11880354 35.8096818 66.1751965 37.62396447 66.1875 39.4375 C66.20167969 40.38496094 66.21585938 41.33242187 66.23046875 42.30859375 C65.99114693 45.10338587 65.28822756 46.55579639 64 49 C63.55188863 51.35564596 63.55188863 51.35564596 63.375 53.75 C63.30023438 54.54921875 63.22546875 55.3484375 63.1484375 56.171875 C63.07496094 57.07679688 63.07496094 57.07679688 63 58 C62.34 58 61.68 58 61 58 C61.04125 58.86625 61.0825 59.7325 61.125 60.625 C60.99542279 64.12358468 60.23980344 66.74551597 59 70 C58.01 70 57.02 70 56 70 C56 71.65 56 73.3 56 75 C55.34 75 54.68 75 54 75 C54 76.32 54 77.64 54 79 C53.01 79.66 52.02 80.32 51 81 C49.79549696 83.55183404 49.79549696 83.55183404 49 86 C48.34 86 47.68 86 47 86 C47 86.66 47 87.32 47 88 C46.34 88 45.68 88 45 88 C44.9175 88.7425 44.835 89.485 44.75 90.25 C43.85190201 93.54302595 42.61583926 94.85976788 40 97 C39.34 97 38.68 97 38 97 C37.67 98.65 37.34 100.3 37 102 C36.34 102 35.68 102 35 102 C34.74782715 102.57596924 34.4956543 103.15193848 34.23583984 103.74536133 C31.87788487 108.04716184 28.07666139 111.25017276 24.625 114.6875 C23.85671875 115.47189453 23.0884375 116.25628906 22.296875 117.06445312 C21.55179688 117.81017578 20.80671875 118.55589844 20.0390625 119.32421875 C19.36053223 120.00572998 18.68200195 120.68724121 17.98291016 121.3894043 C15.9022833 123.07936925 14.57808486 123.4747782 12 124 C10.11777099 125.73561134 10.11777099 125.73561134 8.4375 127.875 C3.97976551 133.25605144 3.97976551 133.25605144 2 135 C1.34 135 0.68 135 0 135 C0 135.66 0 136.32 0 137 C-1.11375 137.37125 -1.11375 137.37125 -2.25 137.75 C-5.09866969 138.84296181 -5.09866969 138.84296181 -7.0625 141.125 C-9 143 -9 143 -13 143 C-13.268125 143.598125 -13.53625 144.19625 -13.8125 144.8125 C-15.02300334 147.04237457 -15.991379 148.45490692 -18 150 C-19.32 150 -20.64 150 -22 150 C-22.33 150.99 -22.66 151.98 -23 153 C-23.66 153 -24.32 153 -25 153 C-25 153.66 -25 154.32 -25 155 C-25.721875 155.2475 -26.44375 155.495 -27.1875 155.75 C-30.10138278 156.90102871 -30.10138278 156.90102871 -32.5625 159.0625 C-34.86143125 160.88985561 -36.15122727 161.5779596 -39 162 C-39 162.66 -39 163.32 -39 164 C-39.99 164.33 -40.98 164.66 -42 165 C-42.33 165.66 -42.66 166.32 -43 167 C-44.65 167 -46.3 167 -48 167 C-48.33 167.99 -48.66 168.98 -49 170 C-52.69585666 172.21751399 -54.63008373 173 -59 173 C-59.33 173.99 -59.66 174.98 -60 176 C-61.32 176 -62.64 176 -64 176 C-64 176.66 -64 177.32 -64 178 C-64.55429687 178.19335938 -65.10859375 178.38671875 -65.6796875 178.5859375 C-66.40414062 178.84632813 -67.12859375 179.10671875 -67.875 179.375 C-68.59429687 179.63023437 -69.31359375 179.88546875 -70.0546875 180.1484375 C-72.18157994 180.93877783 -72.18157994 180.93877783 -74 183 C-75.32 183 -76.64 183 -78 183 C-78 183.66 -78 184.32 -78 185 C-79.32 185 -80.64 185 -82 185 C-82 185.66 -82 186.32 -82 187 C-82.63808594 187.19335938 -83.27617187 187.38671875 -83.93359375 187.5859375 C-84.75988281 187.84632813 -85.58617187 188.10671875 -86.4375 188.375 C-87.26121094 188.63023437 -88.08492188 188.88546875 -88.93359375 189.1484375 C-91.17798016 189.80882227 -91.17798016 189.80882227 -92 192 C-93.98 192 -95.96 192 -98 192 C-98 192.66 -98 193.32 -98 194 C-102.1205746 195.99785435 -105.45194365 196.17835515 -110 196 C-110.33 196.99 -110.66 197.98 -111 199 C-112.32 199 -113.64 199 -115 199 C-115 199.66 -115 200.32 -115 201 C-108.51007799 199.31786948 -102.23356197 197.47192975 -96 195 C-95.154375 194.67 -94.30875 194.34 -93.4375 194 C-91.45074587 193.18492138 -89.47381877 192.34592233 -87.5 191.5 C-86.345 191.005 -85.19 190.51 -84 190 C-83.154375 189.608125 -82.30875 189.21625 -81.4375 188.8125 C-78.52633473 187.84211158 -76.04827617 187.85821971 -73 188 C-73 187.01 -73 186.02 -73 185 C-71.68 185 -70.36 185 -69 185 C-69 184.34 -69 183.68 -69 183 C-67.35 183 -65.7 183 -64 183 C-64 182.34 -64 181.68 -64 181 C-62.35 181 -60.7 181 -59 181 C-59 180.01 -59 179.02 -59 178 C-55.62902617 176.50178941 -53.79557881 176 -50 176 C-50 175.01 -50 174.02 -50 173 C-46.62902617 171.50178941 -44.79557881 171 -41 171 C-41 170.34 -41 169.68 -41 169 C-40.360625 168.87625 -39.72125 168.7525 -39.0625 168.625 C-38.381875 168.41875 -37.70125 168.2125 -37 168 C-36.67 167.34 -36.34 166.68 -36 166 C-33.09740189 164.6250851 -31.23861295 164 -28 164 C-28 163.34 -28 162.68 -28 162 C-27.01 162 -26.02 162 -25 162 C-25 161.34 -25 160.68 -25 160 C-23.35 160 -21.7 160 -20 160 C-20 159.01 -20 158.02 -20 157 C-18.824375 156.566875 -18.824375 156.566875 -17.625 156.125 C-14.90328368 155.15087746 -14.90328368 155.15087746 -13 153 C-12.319375 152.835 -11.63875 152.67 -10.9375 152.5 C-10.298125 152.335 -9.65875 152.17 -9 152 C-8.67 151.34 -8.34 150.68 -8 150 C-6.33927151 149.31867549 -4.672233 148.65257873 -3 148 C-2.34 147.34 -1.68 146.68 -1 146 C0.32 146 1.64 146 3 146 C3.3403125 145.0409375 3.3403125 145.0409375 3.6875 144.0625 C5 142 5 142 7.625 141.25 C8.40875 141.1675 9.1925 141.085 10 141 C10.33 140.01 10.66 139.02 11 138 C12.32 138 13.64 138 15 138 C15.05422947 139.4370809 15.09289723 140.87475462 15.125 142.3125 C15.14820313 143.11300781 15.17140625 143.91351563 15.1953125 144.73828125 C15 147 15 147 13 150 C12.64159778 152.32961443 12.31151288 154.66365343 12 157 C11.40817249 159.36272222 10.71337077 161.66965548 10 164 C9.34 164 8.68 164 8 164 C8.061875 164.721875 8.12375 165.44375 8.1875 166.1875 C7.96133838 169.57992434 6.86892533 171.19661201 5 174 C4.31903578 175.32608822 3.64669414 176.65686601 3 178 C2.34 178 1.68 178 1 178 C1 179.65 1 181.3 1 183 C0.195625 183.226875 -0.60875 183.45375 -1.4375 183.6875 C-2.283125 184.120625 -3.12875 184.55375 -4 185 C-4.12922852 185.75321533 -4.25845703 186.50643066 -4.39160156 187.2824707 C-5.18700316 190.83528579 -6.73261837 192.23464551 -9.296875 194.79296875 C-10.1734375 195.67017578 -11.05 196.54738281 -11.953125 197.45117188 C-12.87609375 198.35416016 -13.7990625 199.25714844 -14.75 200.1875 C-15.6575 201.10208984 -16.565 202.01667969 -17.5 202.95898438 C-24.34686377 209.74078292 -24.34686377 209.74078292 -27.73925781 211.0871582 C-28.48530273 211.388396 -29.23134766 211.68963379 -30 212 C-30.33 212.99 -30.66 213.98 -31 215 C-34.6037898 216.52160014 -37.05220686 217 -41 217 C-41 217.66 -41 218.32 -41 219 C-41.639375 219.12375 -42.27875 219.2475 -42.9375 219.375 C-43.618125 219.58125 -44.29875 219.7875 -45 220 C-45.33 220.66 -45.66 221.32 -46 222 C-50.12606298 223.72718916 -53.54702569 224.2120464 -58 224 C-58.33 224.99 -58.66 225.98 -59 227 C-59.63808594 227.06058594 -60.27617187 227.12117187 -60.93359375 227.18359375 C-61.75988281 227.26738281 -62.58617187 227.35117187 -63.4375 227.4375 C-64.26121094 227.51871094 -65.08492188 227.59992188 -65.93359375 227.68359375 C-67.98662025 227.78930815 -67.98662025 227.78930815 -69 229 C-71.54945698 229.11361897 -74.07071489 229.16418925 -76.62109375 229.16796875 C-77.39501968 229.17129715 -78.16894562 229.17462555 -78.96632385 229.17805481 C-80.61320399 229.18313206 -82.26009447 229.18546289 -83.90698242 229.18530273 C-86.3958512 229.18746384 -88.88425815 229.20553915 -91.37304688 229.22460938 C-108.67948826 229.28758468 -108.67948826 229.28758468 -115 227 C-115.99 226.01 -115.99 226.01 -117 225 C-118.63087036 224.50075397 -120.2648703 224.0091323 -121.9140625 223.57421875 C-125.65970927 222.54311374 -129.32298907 221.25068399 -133 220 C-133 219.34 -133 218.68 -133 218 C-134.65 217.67 -136.3 217.34 -138 217 C-138 216.34 -138 215.68 -138 215 C-139.299375 214.62875 -139.299375 214.62875 -140.625 214.25 C-146.86252739 211.93980467 -151.2412909 208.02728583 -155.75 203.3125 C-159.03139541 199.71720695 -159.03139541 199.71720695 -163 197 C-163 196.01 -163 195.02 -163 194 C-162.34 194 -161.68 194 -161 194 C-161 193.34 -161 192.68 -161 192 C-158.69 192 -156.38 192 -154 192 C-154 191.34 -154 190.68 -154 190 C-149.126739 188.4087311 -145.19209404 187.78807779 -140 188 C-140 187.01 -140 186.02 -140 185 C-138.35 185 -136.7 185 -135 185 C-135 184.34 -135 183.68 -135 183 C-134.030625 182.87625 -133.06125 182.7525 -132.0625 182.625 C-131.051875 182.41875 -130.04125 182.2125 -129 182 C-128.67 181.34 -128.34 180.68 -128 180 C-124.12081644 178.68254143 -121.11624135 178 -117 178 C-117 177.34 -117 176.68 -117 176 C-112.8803623 174.70756464 -109.33168317 173.73747375 -105 174 C-105 173.01 -105 172.02 -105 171 C-103.43979133 170.34865075 -101.87671421 169.70417036 -100.3125 169.0625 C-99.00732422 168.52302734 -99.00732422 168.52302734 -97.67578125 167.97265625 C-95 167 -95 167 -92.23046875 166.49609375 C-91.49441406 166.33238281 -90.75835937 166.16867187 -90 166 C-89.67 165.34 -89.34 164.68 -89 164 C-85.65489648 162.37265234 -83.81164166 162 -80 162 C-80 161.01 -80 160.02 -80 159 C-76.62902617 157.50178941 -74.79557881 157 -71 157 C-71 156.34 -71 155.68 -71 155 C-70.401875 154.896875 -69.80375 154.79375 -69.1875 154.6875 C-66.64568383 153.88864349 -65.82623514 152.89928455 -64 151 C-60.50743487 148.51844057 -58.29206125 147.63210904 -54 148 C-54 147.34 -54 146.68 -54 146 C-52.68 146 -51.36 146 -50 146 C-49.773125 145.360625 -49.54625 144.72125 -49.3125 144.0625 C-48.879375 143.381875 -48.44625 142.70125 -48 142 C-46.33333333 141.66666667 -44.66666667 141.33333333 -43 141 C-41.63979849 139.03241727 -41.63979849 139.03241727 -41 137 C-39.35 137 -37.7 137 -36 137 C-36 136.01 -36 135.02 -36 134 C-33 132 -33 132 -29 132 C-28.79375 131.4225 -28.5875 130.845 -28.375 130.25 C-26.85277577 127.75908762 -25.26711152 126.82472988 -22.82421875 125.31640625 C-20.54398291 123.67092557 -18.70667048 121.76900688 -16.75 119.75 C-12.82964918 115.71004525 -8.67947563 112.2761819 -4.1640625 108.921875 C-1.79453518 106.81752944 -0.54370433 104.74876127 1 102 C3.5625 99.1875 3.5625 99.1875 6 97 C6.66 97 7.32 97 8 97 C8.4021875 95.6078125 8.4021875 95.6078125 8.8125 94.1875 C9.96889563 91.08349067 10.71895449 90.18600194 13 88 C13.33 87.154375 13.66 86.30875 14 85.4375 C15 83 15 83 18 81 C18.72382467 78.94074861 18.72382467 78.94074861 19 77 C19.66 77 20.32 77 21 77 C21 75.35 21 73.7 21 72 C21.99 72 22.98 72 24 72 C24 70.68 24 69.36 24 68 C24.66 68 25.32 68 26 68 C26.55471196 64.75097283 27.05541085 61.52504988 27.4375 58.25 C28 55 28 55 30 53 C30.27844932 50.28065665 30.27844932 50.28065665 30.1953125 47.1171875 C30.18886719 45.95058594 30.18242187 44.78398437 30.17578125 43.58203125 C30.15902344 42.35871094 30.14226562 41.13539063 30.125 39.875 C30.11597656 38.64394531 30.10695313 37.41289062 30.09765625 36.14453125 C30.07402548 33.09616185 30.04108054 30.04817618 30 27 C29.34 26.67 28.68 26.34 28 26 C27.41027924 24.47606814 26.87762036 22.92983493 26.375 21.375 C23.5090575 13.97219649 18.49006708 9.99482728 11.4375 6.625 C7.61871305 5.0736178 4.09794744 4.34876148 0 4 C0 2.68 0 1.36 0 0 Z " fill="#F9FAFA" transform="translate(331,157)"/>
<path d="M0 0 C1.11697266 -0.00128906 2.23394531 -0.00257813 3.38476562 -0.00390625 C4.55587891 -0.00003906 5.72699219 0.00382813 6.93359375 0.0078125 C8.10857422 0.00394531 9.28355469 0.00007812 10.49414062 -0.00390625 C12.16766602 -0.00197266 12.16766602 -0.00197266 13.875 0 C14.90439697 0.00112793 15.93379395 0.00225586 16.99438477 0.00341797 C19.37109375 0.1328125 19.37109375 0.1328125 20.37109375 1.1328125 C20.47362721 3.89251036 20.51052899 6.62647984 20.50390625 9.38671875 C20.50588516 10.68902435 20.50588516 10.68902435 20.50790405 12.01763916 C20.50984616 14.91023127 20.50341353 17.80272991 20.49609375 20.6953125 C20.49520752 21.68091156 20.49432129 22.66651062 20.4934082 23.68197632 C20.4688008 47.17187431 19.95491346 70.65114914 19.37109375 94.1328125 C19.04109375 94.1328125 18.71109375 94.1328125 18.37109375 94.1328125 C18.37109375 63.7728125 18.37109375 33.4128125 18.37109375 2.1328125 C10.45109375 2.1328125 2.53109375 2.1328125 -5.62890625 2.1328125 C-5.62890625 35.4628125 -5.62890625 68.7928125 -5.62890625 103.1328125 C-5.95890625 103.1328125 -6.28890625 103.1328125 -6.62890625 103.1328125 C-7.57044623 97.58316839 -7.76585093 92.23993171 -7.74243164 86.61743164 C-7.74257767 85.68982025 -7.74272369 84.76220886 -7.74287415 83.80648804 C-7.7421811 80.76029061 -7.7344173 77.71415541 -7.7265625 74.66796875 C-7.72469616 72.54805027 -7.72327328 70.42813135 -7.72227478 68.30821228 C-7.71846663 62.7433858 -7.70865092 57.17858565 -7.6975708 51.61376953 C-7.68732004 45.9293656 -7.68276932 40.24495739 -7.67773438 34.56054688 C-7.66702708 23.41795722 -7.64997116 12.27538705 -7.62890625 1.1328125 C-4.98062446 -0.1913284 -2.96210513 0.00324208 0 0 Z " fill="#76A39B" transform="translate(192.62890625,199.8671875)"/>
<path d="M0 0 C-1.3125 1.5 -1.3125 1.5 -3 3 C-3.99 3 -4.98 3 -6 3 C-6 3.99 -6 4.98 -6 6 C-7.64453125 7.5 -7.64453125 7.5 -9.8125 9 C-12.45779563 10.85026142 -14.73354074 12.70800317 -17 15 C-18.66279327 16.0064275 -20.32983484 17.00585407 -22 18 C-22.721875 18.5775 -23.44375 19.155 -24.1875 19.75 C-27.55723905 22.44579124 -31.08187802 24.86657757 -34.6328125 27.31640625 C-37.14265078 29.0510107 -37.14265078 29.0510107 -39.875 31.4375 C-42 33 -42 33 -46 33 C-46 33.66 -46 34.32 -46 35 C-50.59936493 37.64218836 -55.22275899 40.22724954 -59.88671875 42.75390625 C-62.06132531 43.97083235 -62.06132531 43.97083235 -64.08203125 45.65234375 C-66 47 -66 47 -69 47 C-69 47.99 -69 48.98 -69 50 C-70.32 50 -71.64 50 -73 50 C-73.33 50.99 -73.66 51.98 -74 53 C-76.06640625 53.73046875 -76.06640625 53.73046875 -78.5625 54.1875 C-79.38878906 54.34605469 -80.21507812 54.50460937 -81.06640625 54.66796875 C-81.70449219 54.77753906 -82.34257812 54.88710938 -83 55 C-82 53 -82 53 -80.15234375 52.3671875 C-79.05599609 52.12355469 -79.05599609 52.12355469 -77.9375 51.875 C-76.83728516 51.62363281 -76.83728516 51.62363281 -75.71484375 51.3671875 C-75.14894531 51.24601562 -74.58304688 51.12484375 -74 51 C-74.185625 50.21625 -74.37125 49.4325 -74.5625 48.625 C-75 46 -75 46 -74 44 C-72.35 44 -70.7 44 -69 44 C-69 43.34 -69 42.68 -69 42 C-65.62902617 40.50178941 -63.79557881 40 -60 40 C-59.81308594 39.41347656 -59.62617188 38.82695312 -59.43359375 38.22265625 C-57.37232489 35.02684704 -54.42108729 33.94869448 -51.0625 32.4375 C-46.34144693 30.39162843 -46.34144693 30.39162843 -42.30859375 27.28515625 C-41 26 -41 26 -37 26 C-36.773125 25.360625 -36.54625 24.72125 -36.3125 24.0625 C-35 22 -35 22 -32.375 21.25 C-31.59125 21.1675 -30.8075 21.085 -30 21 C-30 20.34 -30 19.68 -30 19 C-27.75 16.375 -27.75 16.375 -25 14 C-23.68 14 -22.36 14 -21 14 C-21 13.34 -21 12.68 -21 12 C-15.64285714 7 -15.64285714 7 -12 7 C-12 6.34 -12 5.68 -12 5 C-8.1252395 0.58707832 -5.81166625 -1.93722208 0 0 Z " fill="#5D968C" transform="translate(304,256)"/>
<path d="M0 0 C1.60681641 -0.01836914 1.60681641 -0.01836914 3.24609375 -0.03710938 C4.26832031 -0.03904297 5.29054687 -0.04097656 6.34375 -0.04296875 C7.28412109 -0.04707764 8.22449219 -0.05118652 9.19335938 -0.05541992 C11.5 0.1875 11.5 0.1875 13.5 2.1875 C13.74609566 4.21397591 13.74609566 4.21397591 13.74050903 6.75588989 C13.74325836 7.71785278 13.74600769 8.67981567 13.74884033 9.67092896 C13.74164978 10.7297226 13.73445923 11.78851624 13.72705078 12.87939453 C13.72734283 13.99159363 13.72763489 15.10379272 13.72793579 16.24969482 C13.72653818 19.93997904 13.71095662 23.63006339 13.6953125 27.3203125 C13.6915839 29.8733611 13.68873621 32.42641113 13.68673706 34.97946167 C13.67987103 41.02139939 13.66409495 47.06325082 13.64403808 53.10515392 C13.62170092 59.9829311 13.61069116 66.86071168 13.60064721 73.73851609 C13.57972928 87.8882174 13.54453969 102.03785475 13.5 116.1875 C16.14 115.8575 18.78 115.5275 21.5 115.1875 C18.33210307 116.94744274 16.25635569 117.43622886 12.5 118.1875 C12.5 80.2375 12.5 42.2875 12.5 3.1875 C4.25 3.1875 -4 3.1875 -12.5 3.1875 C-12.5 44.4375 -12.5 85.6875 -12.5 128.1875 C-12.83 128.1875 -13.16 128.1875 -13.5 128.1875 C-13.5 86.2775 -13.5 44.3675 -13.5 1.1875 C-9.49700128 -0.81399936 -4.40083269 0.00264791 0 0 Z " fill="#6A9991" transform="translate(231.5,164.8125)"/>
<path d="M0 0 C0.495 0.99 0.495 0.99 1 2 C-0.32 2 -1.64 2 -3 2 C-3.33 2.99 -3.66 3.98 -4 5 C-5.32 5 -6.64 5 -8 5 C-8 5.99 -8 6.98 -8 8 C-6.68 7.67 -5.36 7.34 -4 7 C-4 7.66 -4 8.32 -4 9 C-5.65 9 -7.3 9 -9 9 C-9 9.66 -9 10.32 -9 11 C-10.65 11 -12.3 11 -14 11 C-14 11.66 -14 12.32 -14 13 C-15.32 13 -16.64 13 -18 13 C-18 13.99 -18 14.98 -18 16 C-18.94875 16.268125 -19.8975 16.53625 -20.875 16.8125 C-21.50535156 16.99425781 -22.13570312 17.17601562 -22.78515625 17.36328125 C-24.39511193 17.82610802 -26.00742525 18.28075786 -27.62109375 18.73046875 C-28.50925781 18.98441406 -29.39742187 19.23835938 -30.3125 19.5 C-31.15425781 19.7371875 -31.99601562 19.974375 -32.86328125 20.21875 C-35.17461967 20.8937599 -35.17461967 20.8937599 -37 23 C-40.65141743 24.67888598 -44.34600361 25.64419543 -48.25 26.5625 C-51.93035594 27.17768824 -51.93035594 27.17768824 -55 29 C-56.66617115 29.04063832 -58.33388095 29.042721 -60 29 C-60 28.34 -60 27.68 -60 27 C-59.360625 26.87625 -58.72125 26.7525 -58.0625 26.625 C-57.381875 26.41875 -56.70125 26.2125 -56 26 C-55.67 25.34 -55.34 24.68 -55 24 C-52.67750658 23.59802999 -50.34114367 23.27313343 -48 23 C-46.33065717 22.68033861 -44.6626783 22.35268934 -43 22 C-43 21.34 -43 20.68 -43 20 C-41.02 20 -39.04 20 -37 20 C-36.67 19.01 -36.34 18.02 -36 17 C-32.67908998 15.29466783 -30.81507216 15 -27 15 C-27 14.34 -27 13.68 -27 13 C-25.68 13 -24.36 13 -23 13 C-23 12.34 -23 11.68 -23 11 C-22.278125 10.731875 -21.55625 10.46375 -20.8125 10.1875 C-17.96381003 9.07578415 -17.96381003 9.07578415 -15.4375 7.375 C-13 6 -13 6 -9 6 C-9 5.34 -9 4.68 -9 4 C-8.360625 3.87625 -7.72125 3.7525 -7.0625 3.625 C-6.381875 3.41875 -5.70125 3.2125 -5 3 C-4.67 2.34 -4.34 1.68 -4 1 C-1.9375 0.375 -1.9375 0.375 0 0 Z " fill="#597D7D" transform="translate(276,329)"/>
<path d="M0 0 C1.00023193 0.00523682 2.00046387 0.01047363 3.03100586 0.01586914 C4.1105957 0.0190918 5.19018555 0.02231445 6.30249023 0.02563477 C8.00695312 0.03820312 8.00695312 0.03820312 9.74584961 0.05102539 C11.45611328 0.05779297 11.45611328 0.05779297 13.20092773 0.06469727 C16.02845312 0.07652792 18.85587601 0.09301129 21.68334961 0.11352539 C22.17834961 1.10352539 22.17834961 1.10352539 22.68334961 2.11352539 C14.76334961 2.11352539 6.84334961 2.11352539 -1.31665039 2.11352539 C-1.31665039 26.20352539 -1.31665039 50.29352539 -1.31665039 75.11352539 C-12.53665039 75.11352539 -23.75665039 75.11352539 -35.31665039 75.11352539 C-35.31665039 74.78352539 -35.31665039 74.45352539 -35.31665039 74.11352539 C-24.42665039 74.11352539 -13.53665039 74.11352539 -2.31665039 74.11352539 C-2.40043945 68.85543945 -2.48422852 63.59735352 -2.57055664 58.17993164 C-2.62124383 54.85767239 -2.67163393 51.535414 -2.72094727 48.21313477 C-2.79932503 42.93468261 -2.87882898 37.65626363 -2.96484375 32.37792969 C-3.03408707 28.12457459 -3.09844292 23.87117155 -3.15934563 19.61768913 C-3.18350462 17.9912845 -3.20945366 16.36490547 -3.23718452 14.73855782 C-3.2755919 12.46848689 -3.30775233 10.19840995 -3.33837891 7.92822266 C-3.35836441 6.63360611 -3.37834991 5.33898956 -3.39894104 4.00514221 C-3.28954882 0.16120141 -3.28954882 0.16120141 0 0 Z " fill="#658D86" transform="translate(151.316650390625,234.886474609375)"/>
<path d="M0 0 C-0.66 0.66 -1.32 1.32 -2 2 C-3.32 2 -4.64 2 -6 2 C-6.23847656 2.57621094 -6.47695312 3.15242188 -6.72265625 3.74609375 C-8.26745542 6.47193205 -10.05799626 8.0256448 -12.4375 10.0625 C-19.16491323 15.96117392 -25.39076819 22.29986902 -31.63671875 28.703125 C-34 31 -34 31 -37 33 C-37.72382467 35.05925139 -37.72382467 35.05925139 -38 37 C-38.66 37 -39.32 37 -40 37 C-41.11165232 41.4378561 -41.11527763 45.76956386 -41.0625 50.3125 C-41.05798828 51.05306641 -41.05347656 51.79363281 -41.04882812 52.55664062 C-41.03712175 54.37112899 -41.01918898 56.18557534 -41 58 C-41.99 57.67 -42.98 57.34 -44 57 C-44.08132187 54.43685501 -44.14064175 51.87631582 -44.1875 49.3125 C-44.21263672 48.59126953 -44.23777344 47.87003906 -44.26367188 47.12695312 C-44.32614409 42.56648162 -43.91641976 39.58020538 -41 36 C-40.34 36 -39.68 36 -39 36 C-38.979375 35.319375 -38.95875 34.63875 -38.9375 33.9375 C-37.72775398 30.14696246 -35.68179725 28.43759559 -32.82421875 25.75390625 C-30.80155828 23.88083445 -30.80155828 23.88083445 -28.5625 21 C-23.18354464 14.70268641 -16.52105216 9.76368786 -10.00390625 4.69921875 C-7.91158643 3.1506363 -7.91158643 3.1506363 -7 1 C-2.44155844 -1.22077922 -2.44155844 -1.22077922 0 0 Z " fill="#C0D3D0" transform="translate(117,262)"/>
<path d="M0 0 C0.33 0 0.66 0 1 0 C1.02334084 13.78613814 1.04091858 27.57227322 1.05181217 41.35842705 C1.0570395 47.75930337 1.06413446 54.16016645 1.07543945 60.56103516 C1.08627362 66.7336757 1.09227797 72.90630348 1.09487724 79.07895279 C1.09673053 81.43856126 1.10034931 83.798169 1.10573006 86.15777206 C1.11294748 89.45269044 1.11399064 92.74755551 1.11352539 96.04248047 C1.11712067 97.0264682 1.12071594 98.01045593 1.12442017 99.02426147 C1.1230455 99.91891113 1.12167084 100.81356079 1.12025452 101.73532104 C1.12117631 102.51515791 1.1220981 103.29499477 1.12304783 104.09846306 C1 106 1 106 0 108 C-0.66 108 -1.32 108 -2 108 C-2 114.93 -2 121.86 -2 129 C-2.33 129 -2.66 129 -3 129 C-3.0580966 125.0833957 -3.09362893 121.16690237 -3.125 117.25 C-3.14175781 116.13882813 -3.15851563 115.02765625 -3.17578125 113.8828125 C-3.18222656 112.81289063 -3.18867188 111.74296875 -3.1953125 110.640625 C-3.20578613 109.65610352 -3.21625977 108.67158203 -3.22705078 107.65722656 C-3 105 -3 105 -2.00321388 103.10363388 C-0.88880051 100.76682637 -0.7407335 99.2582891 -0.7215271 96.68463135 C-0.71036362 95.82930313 -0.69920013 94.97397491 -0.68769836 94.09272766 C-0.68553818 93.16268417 -0.68337799 92.23264069 -0.68115234 91.27441406 C-0.67110672 90.28871933 -0.6610611 89.3030246 -0.65071106 88.28746033 C-0.61982631 85.0301878 -0.60282906 81.77299767 -0.5859375 78.515625 C-0.56723013 76.25688973 -0.54765704 73.99816149 -0.5272522 71.73944092 C-0.47587959 65.79486221 -0.43628121 59.85026082 -0.39910889 53.90557861 C-0.35910146 47.83933887 -0.30799423 41.77319385 -0.2578125 35.70703125 C-0.16099243 23.80475399 -0.07660703 11.90242331 0 0 Z " fill="#1B4039" transform="translate(435,214)"/>
<path d="M0 0 C0.78375 0.04125 1.5675 0.0825 2.375 0.125 C1.4159375 0.2796875 1.4159375 0.2796875 0.4375 0.4375 C-0.243125 0.664375 -0.92375 0.89125 -1.625 1.125 C-1.955 2.115 -2.285 3.105 -2.625 4.125 C-6.09825181 5.2827506 -8.98567448 5.19366652 -12.625 5.125 C-12.625 5.785 -12.625 6.445 -12.625 7.125 C-13.55183594 7.24617188 -14.47867188 7.36734375 -15.43359375 7.4921875 C-16.63113281 7.65976562 -17.82867187 7.82734375 -19.0625 8 C-20.25746094 8.16242188 -21.45242188 8.32484375 -22.68359375 8.4921875 C-24.13958984 8.80542969 -24.13958984 8.80542969 -25.625 9.125 C-25.955 9.785 -26.285 10.445 -26.625 11.125 C-30.25316269 12.525189 -34.03975583 12.22301152 -37.875 12.1875 C-39.13828125 12.17847656 -40.4015625 12.16945313 -41.703125 12.16015625 C-42.66734375 12.14855469 -43.6315625 12.13695312 -44.625 12.125 C-44.625 12.785 -44.625 13.445 -44.625 14.125 C-47.29053437 15.01351146 -49.0670317 15.29231278 -51.8203125 15.40625 C-52.61824219 15.44363281 -53.41617187 15.48101562 -54.23828125 15.51953125 C-55.9205592 15.59017123 -57.60285105 15.66048071 -59.28515625 15.73046875 C-63.27879008 15.5275851 -63.27879008 15.5275851 -66.625 17.125 C-69.32154854 17.19819621 -71.99191458 17.21742537 -74.6875 17.1875 C-75.44611328 17.18298828 -76.20472656 17.17847656 -76.98632812 17.17382812 C-78.86591871 17.1620068 -80.74546899 17.14407078 -82.625 17.125 C-82.625 16.795 -82.625 16.465 -82.625 16.125 C-81.62597656 16.06441406 -80.62695312 16.00382812 -79.59765625 15.94140625 C-77.66212891 15.81572266 -77.66212891 15.81572266 -75.6875 15.6875 C-74.39972656 15.60628906 -73.11195313 15.52507812 -71.78515625 15.44140625 C-68.76476043 15.47580812 -68.76476043 15.47580812 -67.625 14.125 C-66.28484779 13.96917697 -64.93741097 13.87455858 -63.58984375 13.80859375 C-62.78095703 13.76669922 -61.97207031 13.72480469 -61.13867188 13.68164062 C-59.8634668 13.62266602 -59.8634668 13.62266602 -58.5625 13.5625 C-57.28149414 13.49772461 -57.28149414 13.49772461 -55.97460938 13.43164062 C-53.85827963 13.32523298 -51.74166187 13.22458269 -49.625 13.125 C-49.295 12.465 -48.965 11.805 -48.625 11.125 C-45.67578125 10.78125 -45.67578125 10.78125 -41.9375 10.625 C-36.32849751 10.38808332 -31.67602525 9.65051263 -26.625 7.125 C-24.03251328 6.85324182 -21.44051489 6.67927432 -18.83984375 6.50390625 C-17.74349609 6.31634766 -17.74349609 6.31634766 -16.625 6.125 C-16.295 5.465 -15.965 4.805 -15.625 4.125 C-13.19140625 3.5625 -13.19140625 3.5625 -10.1875 3.125 C-6.15088469 2.53555943 -3.65430944 0.17401474 0 0 Z " fill="#031112" transform="translate(366.625,442.875)"/>
<path d="M0 0 C1.32 0 2.64 0 4 0 C2.62693443 3.39019797 1.46358579 4.60738053 -1.875 6.0625 C-4.29238563 7.16846485 -6.1776655 8.13444957 -8.3125 9.75 C-10 11 -10 11 -13 11 C-13 11.99 -13 12.98 -13 14 C-14.32 14 -15.64 14 -17 14 C-17.33 14.99 -17.66 15.98 -18 17 C-20.06640625 17.73046875 -20.06640625 17.73046875 -22.5625 18.1875 C-23.38878906 18.34605469 -24.21507812 18.50460937 -25.06640625 18.66796875 C-25.70449219 18.77753906 -26.34257812 18.88710938 -27 19 C-26 17 -26 17 -24.15234375 16.3671875 C-23.05599609 16.12355469 -23.05599609 16.12355469 -21.9375 15.875 C-21.20402344 15.70742188 -20.47054687 15.53984375 -19.71484375 15.3671875 C-19.14894531 15.24601562 -18.58304688 15.12484375 -18 15 C-18.185625 14.21625 -18.37125 13.4325 -18.5625 12.625 C-19 10 -19 10 -18 8 C-16.35 8 -14.7 8 -13 8 C-13 7.34 -13 6.68 -13 6 C-11.84371094 5.60167969 -11.84371094 5.60167969 -10.6640625 5.1953125 C-9.66117188 4.84210938 -8.65828125 4.48890625 -7.625 4.125 C-6.62726563 3.77695312 -5.62953125 3.42890625 -4.6015625 3.0703125 C-1.89557882 2.15217498 -1.89557882 2.15217498 0 0 Z " fill="#4C847B" transform="translate(248,292)"/>
<path d="M0 0 C0 1.32 0 2.64 0 4 C-1.95649397 4.83764268 -3.91525556 5.66999059 -5.875 6.5 C-7.51082031 7.19609375 -7.51082031 7.19609375 -9.1796875 7.90625 C-12 9 -12 9 -14 9 C-14.33 9.99 -14.66 10.98 -15 12 C-17.3125 12.25 -17.3125 12.25 -20 12 C-21.8125 10 -21.8125 10 -23 8 C-22 7 -22 7 -18.9375 6.9375 C-17.4834375 6.9684375 -17.4834375 6.9684375 -16 7 C-15.67 6.01 -15.34 5.02 -15 4 C-13.68 4 -12.36 4 -11 4 C-11 3.34 -11 2.68 -11 2 C-7.17010894 0.19769832 -4.21878192 -0.19622241 0 0 Z " fill="#4A7A72" transform="translate(230,303)"/>
<path d="M0 0 C0.33 0.66 0.66 1.32 1 2 C-0.32 2 -1.64 2 -3 2 C-3.33 2.99 -3.66 3.98 -4 5 C-5.32 5 -6.64 5 -8 5 C-8 5.99 -8 6.98 -8 8 C-6.68 7.67 -5.36 7.34 -4 7 C-4 7.66 -4 8.32 -4 9 C-5.65 9 -7.3 9 -9 9 C-9 9.66 -9 10.32 -9 11 C-10.65 11 -12.3 11 -14 11 C-14 11.66 -14 12.32 -14 13 C-17.37097383 14.49821059 -19.20442119 15 -23 15 C-23 13.68 -23 12.36 -23 11 C-22.278125 10.731875 -21.55625 10.46375 -20.8125 10.1875 C-17.96381003 9.07578415 -17.96381003 9.07578415 -15.4375 7.375 C-13 6 -13 6 -9 6 C-9 5.34 -9 4.68 -9 4 C-8.360625 3.87625 -7.72125 3.7525 -7.0625 3.625 C-6.381875 3.41875 -5.70125 3.2125 -5 3 C-4.67 2.34 -4.34 1.68 -4 1 C-1.9375 0.375 -1.9375 0.375 0 0 Z " fill="#507675" transform="translate(276,329)"/>
<path d="M0 0 C4.05676492 -0.04954711 8.11341194 -0.085789 12.17041016 -0.10986328 C13.54967315 -0.11990253 14.92891496 -0.13353677 16.30810547 -0.15087891 C18.2938514 -0.17521754 20.2797545 -0.18543255 22.265625 -0.1953125 C24.05661621 -0.21102295 24.05661621 -0.21102295 25.88378906 -0.22705078 C29 0 29 0 33 2 C24.75 2 16.5 2 8 2 C8.95865509 4.33075929 8.95865509 4.33075929 12 6 C10.9790625 5.7834375 10.9790625 5.7834375 9.9375 5.5625 C6.63726918 4.93054091 3.32855574 4.45686059 0 4 C0 2.68 0 1.36 0 0 Z " fill="#B2CCCA" transform="translate(331,157)"/>
<path d="M0 0 C0.66 0.33 1.32 0.66 2 1 C1.67 1.99 1.34 2.98 1 4 C0.01 4 -0.98 4 -2 4 C-2.33 5.32 -2.66 6.64 -3 8 C-3.99 8 -4.98 8 -6 8 C-6.33 8.99 -6.66 9.98 -7 11 C-8.65 11.33 -10.3 11.66 -12 12 C-12.33 12.99 -12.66 13.98 -13 15 C-14.32 15 -15.64 15 -17 15 C-17.33 15.99 -17.66 16.98 -18 18 C-20.97 18.33 -23.94 18.66 -27 19 C-27.33 19.99 -27.66 20.98 -28 22 C-29.65 22 -31.3 22 -33 22 C-29.18147605 18.52861459 -25.95775736 17.2853445 -21 16 C-20.01 15.34 -19.02 14.68 -18 14 C-17.01 13.67 -16.02 13.34 -15 13 C-14.34 12.01 -13.68 11.02 -13 10 C-12.236875 9.71125 -11.47375 9.4225 -10.6875 9.125 C-7.77262396 8.10444445 -7.77262396 8.10444445 -5.375 5.375 C-4.59125 4.59125 -3.8075 3.8075 -3 3 C-2.01 3 -1.02 3 0 3 C0 2.01 0 1.02 0 0 Z " fill="#0D2A24" transform="translate(403,422)"/>
<path d="M0 0 C0.33 0 0.66 0 1 0 C1.0246985 3.95099928 1.04285923 7.90196874 1.05493164 11.85302734 C1.06244036 13.85906551 1.0751447 15.86508202 1.08789062 17.87109375 C1.09111328 19.12792969 1.09433594 20.38476562 1.09765625 21.6796875 C1.10289307 22.84226074 1.10812988 24.00483398 1.11352539 25.20263672 C1 28 1 28 0 30 C-0.66 30 -1.32 30 -2 30 C-2 36.93 -2 43.86 -2 51 C-2.33 51 -2.66 51 -3 51 C-3.0580966 47.0833957 -3.09362893 43.16690237 -3.125 39.25 C-3.14175781 38.13882813 -3.15851563 37.02765625 -3.17578125 35.8828125 C-3.18222656 34.81289063 -3.18867188 33.74296875 -3.1953125 32.640625 C-3.20578613 31.65610352 -3.21625977 30.67158203 -3.22705078 29.65722656 C-2.98966656 26.87906544 -2.24817473 25.44584528 -1 23 C-0.63675609 20.39249078 -0.63675609 20.39249078 -0.5859375 17.578125 C-0.54726563 16.55332031 -0.50859375 15.52851563 -0.46875 14.47265625 C-0.4378125 13.40917969 -0.406875 12.34570312 -0.375 11.25 C-0.33632813 10.17105469 -0.29765625 9.09210938 -0.2578125 7.98046875 C-0.16365369 5.32048225 -0.07802613 2.6605006 0 0 Z " fill="#133833" transform="translate(435,292)"/>
<path d="M0 0 C0.78375 0.04125 1.5675 0.0825 2.375 0.125 C1.4159375 0.2796875 1.4159375 0.2796875 0.4375 0.4375 C-0.243125 0.664375 -0.92375 0.89125 -1.625 1.125 C-1.955 2.115 -2.285 3.105 -2.625 4.125 C-6.09825181 5.2827506 -8.98567448 5.19366652 -12.625 5.125 C-12.625 5.785 -12.625 6.445 -12.625 7.125 C-14.01525391 7.30675781 -14.01525391 7.30675781 -15.43359375 7.4921875 C-16.63113281 7.65976562 -17.82867187 7.82734375 -19.0625 8 C-20.25746094 8.16242188 -21.45242188 8.32484375 -22.68359375 8.4921875 C-24.13958984 8.80542969 -24.13958984 8.80542969 -25.625 9.125 C-25.955 9.785 -26.285 10.445 -26.625 11.125 C-29.265 11.125 -31.905 11.125 -34.625 11.125 C-34.625 10.795 -34.625 10.465 -34.625 10.125 C-33.67625 9.815625 -32.7275 9.50625 -31.75 9.1875 C-28.76419592 8.25105258 -28.76419592 8.25105258 -26.625 7.125 C-24.03251328 6.85324182 -21.44051489 6.67927432 -18.83984375 6.50390625 C-17.74349609 6.31634766 -17.74349609 6.31634766 -16.625 6.125 C-16.295 5.465 -15.965 4.805 -15.625 4.125 C-13.19140625 3.5625 -13.19140625 3.5625 -10.1875 3.125 C-6.15088469 2.53555943 -3.65430944 0.17401474 0 0 Z " fill="#123531" transform="translate(366.625,442.875)"/>
<path d="M0 0 C0.99 0 1.98 0 3 0 C3 0.66 3 1.32 3 2 C2.01 2 1.02 2 0 2 C0.01160156 3.19238281 0.02320313 4.38476562 0.03515625 5.61328125 C0.04453592 7.17968594 0.05363593 8.74609231 0.0625 10.3125 C0.07087891 11.09818359 0.07925781 11.88386719 0.08789062 12.69335938 C0.09111328 13.45068359 0.09433594 14.20800781 0.09765625 14.98828125 C0.10289307 15.68477783 0.10812988 16.38127441 0.11352539 17.09887695 C0 19 0 19 -1 22 C-1.66 22 -2.32 22 -3 22 C-2.97679687 22.67546875 -2.95359375 23.3509375 -2.9296875 24.046875 C-2.91164063 24.93890625 -2.89359375 25.8309375 -2.875 26.75 C-2.85179687 27.63171875 -2.82859375 28.5134375 -2.8046875 29.421875 C-3.00860498 32.1135858 -3.63448279 33.69904974 -5 36 C-5.66 36 -6.32 36 -7 36 C-7 34.68 -7 33.36 -7 32 C-6.34 31.67 -5.68 31.34 -5 31 C-4.53101037 28.1840151 -4.53101037 28.1840151 -4.375 24.9375 C-4.30023438 23.83277344 -4.22546875 22.72804688 -4.1484375 21.58984375 C-4.09945313 20.73519531 -4.05046875 19.88054687 -4 19 C-3.01 18.67 -2.02 18.34 -1 18 C-1.01160156 16.78441406 -1.02320313 15.56882812 -1.03515625 14.31640625 C-1.04453278 12.73177236 -1.05363313 11.14713682 -1.0625 9.5625 C-1.07087891 8.76005859 -1.07925781 7.95761719 -1.08789062 7.13085938 C-1.0965143 5.08704779 -1.0522815 3.04316098 -1 1 C-0.67 0.67 -0.34 0.34 0 0 Z " fill="#0C2B1C" transform="translate(429,343)"/>
<path d="M0 0 C0.99 0.33 1.98 0.66 3 1 C-2.61 6.61 -8.22 12.22 -14 18 C-14.33 17.01 -14.66 16.02 -15 15 C-10.05 10.05 -5.1 5.1 0 0 Z " fill="#425F5B" transform="translate(323,349)"/>
<path d="M0 0 C0.66 0.33 1.32 0.66 2 1 C1.67 1.66 1.34 2.32 1 3 C0.01 3 -0.98 3 -2 3 C-2.309375 3.86625 -2.309375 3.86625 -2.625 4.75 C-4.49984809 7.81793324 -6.98124294 9.11327684 -10 11 C-10.66 11.66 -11.32 12.32 -12 13 C-14.70577949 14.35288974 -16.29241325 15.1147438 -19.3125 14.625 C-19.869375 14.41875 -20.42625 14.2125 -21 14 C-19.68 13.67 -18.36 13.34 -17 13 C-17 12.34 -17 11.68 -17 11 C-16.30519531 10.76539063 -15.61039062 10.53078125 -14.89453125 10.2890625 C-11.45311285 8.75644702 -8.64098452 6.67175588 -5.6875 4.375 C-5.13771484 3.95476562 -4.58792969 3.53453125 -4.02148438 3.1015625 C-2.67707832 2.07279961 -1.33798587 1.0370991 0 0 Z " fill="#D5DEDF" transform="translate(275,278)"/>
<path d="M0 0 C-1.3125 1.5 -1.3125 1.5 -3 3 C-3.99 3 -4.98 3 -6 3 C-6 3.99 -6 4.98 -6 6 C-12.4 10.06153846 -12.4 10.06153846 -15.4375 9.75 C-15.953125 9.5025 -16.46875 9.255 -17 9 C-16.34 8.34 -15.68 7.68 -15 7 C-14.01 7 -13.02 7 -12 7 C-12 6.34 -12 5.68 -12 5 C-8.1252395 0.58707832 -5.81166625 -1.93722208 0 0 Z " fill="#95B5B0" transform="translate(304,256)"/>
<path d="M0 0 C4.17645661 -0.34803805 5.82586157 0.33781938 9 3 C10.31836295 3.69580267 11.64791086 4.37224433 13 5 C13 5.66 13 6.32 13 7 C14.423125 6.9690625 14.423125 6.9690625 15.875 6.9375 C19 7 19 7 21 8 C20.67 8.99 20.34 9.98 20 11 C20 10.34 20 9.68 20 9 C17.03 8.67 14.06 8.34 11 8 C10.67 7.01 10.34 6.02 10 5 C7.03 4.505 7.03 4.505 4 4 C3.67 3.01 3.34 2.02 3 1 C2.01 0.67 1.02 0.34 0 0 Z " fill="#173933" transform="translate(84,432)"/>
<path d="M0 0 C-1.7136951 4.79834628 -5.61431921 6.80715961 -10 9 C-11.67654729 8.72057545 -13.34608154 8.39171753 -15 8 C-13.67306301 6.99152789 -12.33743723 5.99450461 -11 5 C-10.44441406 4.566875 -9.88882813 4.13375 -9.31640625 3.6875 C-8.71699219 3.23375 -8.11757812 2.78 -7.5 2.3125 C-6.9328125 1.87550781 -6.365625 1.43851563 -5.78125 0.98828125 C-4 0 -4 0 0 0 Z " fill="#D6E3E1" transform="translate(133,252)"/>
<path d="M0 0 C0.66 0.33 1.32 0.66 2 1 C1.67 1.33 1.34 1.66 1 2 C1.66 2.33 2.32 2.66 3 3 C3 3.66 3 4.32 3 5 C1.39850114 5.67305018 -0.20631029 6.33822227 -1.8125 7 C-2.70582031 7.37125 -3.59914063 7.7425 -4.51953125 8.125 C-7 9 -7 9 -10 9 C-10 8.01 -10 7.02 -10 6 C-9.360625 5.87625 -8.72125 5.7525 -8.0625 5.625 C-7.381875 5.41875 -6.70125 5.2125 -6 5 C-5.67 4.34 -5.34 3.68 -5 3 C-3.68 3 -2.36 3 -1 3 C-0.67 2.01 -0.34 1.02 0 0 Z " fill="#3F6B65" transform="translate(278,328)"/>
<path d="M0 0 C-1.41231461 3.35882075 -3.03368978 5.13329047 -5.9375 7.3125 C-6.97197266 8.11107422 -6.97197266 8.11107422 -8.02734375 8.92578125 C-8.67832031 9.28027344 -9.32929688 9.63476562 -10 10 C-10.99 9.67 -11.98 9.34 -13 9 C-9.64546138 4.56016948 -6.11017563 0 0 0 Z " fill="#538A81" transform="translate(291,265)"/>
<path d="M0 0 C0.33 0 0.66 0 1 0 C1.0270043 1.45823212 1.04639787 2.91660675 1.0625 4.375 C1.07410156 5.18710937 1.08570313 5.99921875 1.09765625 6.8359375 C1 9 1 9 0 11 C-0.66 11 -1.32 11 -2 11 C-1.95875 12.0725 -1.9175 13.145 -1.875 14.25 C-2.04411765 19.32352941 -2.04411765 19.32352941 -4 22 C-4.99 22.33 -5.98 22.66 -7 23 C-6.625 20.5625 -6.625 20.5625 -6 18 C-5.34 17.67 -4.68 17.34 -4 17 C-3.3801969 15.15255805 -3.3801969 15.15255805 -3 12.9375 C-2.12138994 8.58628827 -1.0950032 4.30179829 0 0 Z " fill="#061614" transform="translate(421,379)"/>
<path d="M0 0 C2.97 0 5.94 0 9 0 C9 0.33 9 0.66 9 1 C2.42736799 3.43430815 -4.08336373 4.90109517 -11 6 C-11 5.01 -11 4.02 -11 3 C-7.7 3 -4.4 3 -1 3 C-0.67 2.01 -0.34 1.02 0 0 Z " fill="#399E8F" transform="translate(123,80)"/>
<path d="M0 0 C0.33 0.66 0.66 1.32 1 2 C-0.32 2 -1.64 2 -3 2 C-3.33 2.99 -3.66 3.98 -4 5 C-5.32 5 -6.64 5 -8 5 C-8 5.99 -8 6.98 -8 8 C-6.68 7.67 -5.36 7.34 -4 7 C-4 7.66 -4 8.32 -4 9 C-5.65 9 -7.3 9 -9 9 C-9 9.66 -9 10.32 -9 11 C-10.32 10.67 -11.64 10.34 -13 10 C-12.01 10 -11.02 10 -10 10 C-10.99 8.68 -11.98 7.36 -13 6 C-11.68 6 -10.36 6 -9 6 C-9 5.34 -9 4.68 -9 4 C-8.360625 3.87625 -7.72125 3.7525 -7.0625 3.625 C-6.0415625 3.315625 -6.0415625 3.315625 -5 3 C-4.67 2.34 -4.34 1.68 -4 1 C-1.9375 0.375 -1.9375 0.375 0 0 Z " fill="#698A8A" transform="translate(276,329)"/>
<path d="M0 0 C1.32 0.33 2.64 0.66 4 1 C3.34 1 2.68 1 2 1 C2 1.66 2 2.32 2 3 C2.99 3.33 3.98 3.66 5 4 C5 4.66 5 5.32 5 6 C3.68 6 2.36 6 1 6 C0.67 6.99 0.34 7.98 0 9 C-2.06640625 9.73046875 -2.06640625 9.73046875 -4.5625 10.1875 C-5.38878906 10.34605469 -6.21507812 10.50460937 -7.06640625 10.66796875 C-7.70449219 10.77753906 -8.34257812 10.88710938 -9 11 C-8 9 -8 9 -6.15234375 8.3671875 C-5.05599609 8.12355469 -5.05599609 8.12355469 -3.9375 7.875 C-3.20402344 7.70742188 -2.47054687 7.53984375 -1.71484375 7.3671875 C-1.14894531 7.24601562 -0.58304688 7.12484375 0 7 C-0.2784375 5.824375 -0.2784375 5.824375 -0.5625 4.625 C-1 2 -1 2 0 0 Z " fill="#8CA8A4" transform="translate(230,300)"/>
<path d="M0 0 C1.98 0 3.96 0 6 0 C1.375 5.875 1.375 5.875 -2 7 C-2 6.34 -2 5.68 -2 5 C-3.32 4.67 -4.64 4.34 -6 4 C-4.7934375 3.566875 -4.7934375 3.566875 -3.5625 3.125 C-0.8673532 2.26737432 -0.8673532 2.26737432 0 0 Z " fill="#EAF0EF" transform="translate(117,260)"/>
<path d="M0 0 C0 0.66 0 1.32 0 2 C-1.98 2.66 -3.96 3.32 -6 4 C-6.33 5.65 -6.66 7.3 -7 9 C-7.66 8.67 -8.32 8.34 -9 8 C-9.625 4.9375 -9.625 4.9375 -10 2 C-6.5980513 -0.09350689 -3.94727588 -0.17942163 0 0 Z " fill="#CFD7D7" transform="translate(165,333)"/>
<path d="M0 0 C0.99 0.33 1.98 0.66 3 1 C3 1.66 3 2.32 3 3 C2.34 3 1.68 3 1 3 C1 9.93 1 16.86 1 24 C0.67 24 0.34 24 0 24 C0 16.08 0 8.16 0 0 Z " fill="#071B19" transform="translate(432,319)"/>
<path d="M0 0 C-1.44126786 3.36295835 -3.20592655 5.62927102 -6 8 C-6.99 8 -7.98 8 -9 8 C-7.47364599 4.11473526 -4.49771687 0 0 0 Z " fill="#6B9A92" transform="translate(118,266)"/>
<path d="M0 0 C0.33 0 0.66 0 1 0 C1.66131596 5.2905277 0.04553852 8.15696618 -2.7109375 12.4609375 C-3.13632812 12.96882813 -3.56171875 13.47671875 -4 14 C-4.66 14 -5.32 14 -6 14 C-6 13.01 -6 12.02 -6 11 C-5.34 11 -4.68 11 -4 11 C-3.896875 10.29875 -3.79375 9.5975 -3.6875 8.875 C-2.90640997 5.60862353 -1.57941257 2.9528148 0 0 Z " fill="#092425" transform="translate(411,408)"/>
<path d="M0 0 C1.24613594 3.73840781 0.43075204 4.44341426 -1 8 C-1.28121242 10.26296407 -1.48704889 12.53630662 -1.625 14.8125 C-1.69976562 15.97394531 -1.77453125 17.13539063 -1.8515625 18.33203125 C-1.90054688 19.21246094 -1.94953125 20.09289062 -2 21 C-2.33 21 -2.66 21 -3 21 C-3.02690104 18.20826945 -3.04679053 15.41679652 -3.0625 12.625 C-3.07087891 11.8309375 -3.07925781 11.036875 -3.08789062 10.21875 C-3.11328125 4.2265625 -3.11328125 4.2265625 -2 2 C-1.34 2 -0.68 2 0 2 C0 1.34 0 0.68 0 0 Z " fill="#459285" transform="translate(51,177)"/>
<path d="M0 0 C0.99 0 1.98 0 3 0 C3 2.97 3 5.94 3 9 C3.99 9.33 4.98 9.66 6 10 C6 11.65 6 13.3 6 15 C1.55397698 10.55397698 0.88352014 5.98701148 0 0 Z " fill="#123730" transform="translate(56,380)"/>
<path d="M0 0 C0.33 0.66 0.66 1.32 1 2 C0.34 2 -0.32 2 -1 2 C-1.268125 3.0725 -1.53625 4.145 -1.8125 5.25 C-2.86227827 8.56508928 -3.74612328 10.43877646 -6 13 C-6.66 12.67 -7.32 12.34 -8 12 C-7.566875 11.29875 -7.13375 10.5975 -6.6875 9.875 C-4.93650825 6.98241944 -4.93650825 6.98241944 -3.4375 3.75 C-2 1 -2 1 0 0 Z " fill="#C3D3D2" transform="translate(348,239)"/>
<path d="M0 0 C0.7734375 0.433125 0.7734375 0.433125 1.5625 0.875 C4.62356725 2.28780027 7.74944918 3.1248517 11 4 C11 4.33 11 4.66 11 5 C3.61538462 5.49230769 3.61538462 5.49230769 0.5 3 C0.005 2.34 -0.49 1.68 -1 1 C-0.67 0.67 -0.34 0.34 0 0 Z " fill="#248960" transform="translate(365,83)"/>
<path d="M0 0 C1.2065625 0.0309375 1.2065625 0.0309375 2.4375 0.0625 C1.4784375 0.2171875 1.4784375 0.2171875 0.5 0.375 C-0.180625 0.601875 -0.86125 0.82875 -1.5625 1.0625 C-1.8925 2.0525 -2.2225 3.0425 -2.5625 4.0625 C-6.03575181 5.2202506 -8.92317448 5.13116652 -12.5625 5.0625 C-9.87970027 2.37970027 -7.17570866 2.04792054 -3.5625 1.0625 C-2.5625 0.0625 -2.5625 0.0625 0 0 Z " fill="#0A2424" transform="translate(366.5625,442.9375)"/>
<path d="M0 0 C0 0.99 0 1.98 0 3 C-3.37097383 4.49821059 -5.20442119 5 -9 5 C-8.67 4.01 -8.34 3.02 -8 2 C-5.10441559 0.5522078 -3.25811062 0 0 0 Z " fill="#32605B" transform="translate(262,339)"/>
<path d="M0 0 C0.33 0.99 0.66 1.98 1 3 C-0.98 4.98 -2.96 6.96 -5 9 C-5.99 8.67 -6.98 8.34 -8 8 C-5.36 5.36 -2.72 2.72 0 0 Z " fill="#66918A" transform="translate(317,258)"/>
<path d="M0 0 C0.99 0.33 1.98 0.66 3 1 C-0.96 4.465 -0.96 4.465 -5 8 C-5.66 7.67 -6.32 7.34 -7 7 C-4.69 4.69 -2.38 2.38 0 0 Z " fill="#4D6865" transform="translate(323,349)"/>
<path d="M0 0 C-1.40372802 1.20276695 -2.82352097 2.38680519 -4.25 3.5625 C-5.43335938 4.55443359 -5.43335938 4.55443359 -6.640625 5.56640625 C-9 7 -9 7 -11.296875 6.71484375 C-11.85890625 6.47894531 -12.4209375 6.24304688 -13 6 C-12.195625 5.54625 -11.39125 5.0925 -10.5625 4.625 C-7.91143428 3.25274335 -7.91143428 3.25274335 -7 1 C-2.44155844 -1.22077922 -2.44155844 -1.22077922 0 0 Z " fill="#91B3AE" transform="translate(288,285)"/>
<path d="M0 0 C0.66 0 1.32 0 2 0 C1.67 0.99 1.34 1.98 1 3 C-4.28 3 -9.56 3 -15 3 C-15 2.67 -15 2.34 -15 2 C-14.00097656 1.93941406 -13.00195312 1.87882812 -11.97265625 1.81640625 C-10.68230469 1.73261719 -9.39195312 1.64882813 -8.0625 1.5625 C-6.77472656 1.48128906 -5.48695313 1.40007812 -4.16015625 1.31640625 C-1.13976043 1.35080812 -1.13976043 1.35080812 0 0 Z " fill="#122E31" transform="translate(299,457)"/>
<path d="M0 0 C0.99 0.33 1.98 0.66 3 1 C2.34 1 1.68 1 1 1 C1 2.32 1 3.64 1 5 C-0.5 6.75 -0.5 6.75 -2 8 C-2.99 7.01 -3.98 6.02 -5 5 C-3.35 3.35 -1.7 1.7 0 0 Z " fill="#70A29A" transform="translate(279,270)"/>
<path d="M0 0 C0.99 0.33 1.98 0.66 3 1 C2.5359375 2.2684375 2.5359375 2.2684375 2.0625 3.5625 C0.98461179 7.0497854 0.43418696 10.38177535 0 14 C-0.33 14 -0.66 14 -1 14 C-1.02705729 12.22925083 -1.04642195 10.45838289 -1.0625 8.6875 C-1.07410156 7.70136719 -1.08570313 6.71523437 -1.09765625 5.69921875 C-1 3 -1 3 0 0 Z " fill="#3F9C8F" transform="translate(52,162)"/>
<path d="M0 0 C1.98 0 3.96 0 6 0 C6 0.33 6 0.66 6 1 C4.35 1 2.7 1 1 1 C0.67 2.32 0.34 3.64 0 5 C-1.65 5 -3.3 5 -5 5 C-5 4.34 -5 3.68 -5 3 C-4.360625 2.87625 -3.72125 2.7525 -3.0625 2.625 C-2.0415625 2.315625 -2.0415625 2.315625 -1 2 C-0.67 1.34 -0.34 0.68 0 0 Z " fill="#738B8F" transform="translate(221,353)"/>
<path d="M0 0 C0.66 0.33 1.32 0.66 2 1 C1.67 1.66 1.34 2.32 1 3 C0.01 3 -0.98 3 -2 3 C-2.66 4.32 -3.32 5.64 -4 7 C-5.32 6.67 -6.64 6.34 -8 6 C-5.36 4.02 -2.72 2.04 0 0 Z " fill="#C4D5D4" transform="translate(275,278)"/>
<path d="M0 0 C1.9453125 -0.29296875 1.9453125 -0.29296875 4.125 -0.1875 C5.40375 -0.125625 6.6825 -0.06375 8 0 C6.66666667 0.66666667 5.33333333 1.33333333 4 2 C3.29875 2.391875 2.5975 2.78375 1.875 3.1875 C0.946875 3.5896875 0.946875 3.5896875 0 4 C-0.66 3.67 -1.32 3.34 -2 3 C-1.34 2.01 -0.68 1.02 0 0 Z " fill="#399E87" transform="translate(95,90)"/>
<path d="M0 0 C1.41623216 -0.05447047 2.83308191 -0.09300508 4.25 -0.125 C5.03890625 -0.14820313 5.8278125 -0.17140625 6.640625 -0.1953125 C9.20731941 0.0171622 10.7916067 0.71345895 13 2 C12.01 2.66 11.02 3.32 10 4 C9.34 3.67 8.68 3.34 8 3 C8 2.34 8 1.68 8 1 C5.36 1 2.72 1 0 1 C0 0.67 0 0.34 0 0 Z " fill="#0F2423" transform="translate(118,447)"/>
<path d="M0 0 C0.99 0.33 1.98 0.66 3 1 C2.01 2.32 1.02 3.64 0 5 C-1.32 4.67 -2.64 4.34 -4 4 C-2.68 2.68 -1.36 1.36 0 0 Z " fill="#397066" transform="translate(235,299)"/>
<path d="M0 0 C-3.95046662 2.19470368 -7.48763697 3 -12 3 C-10.10827237 0.58279247 -9.04144125 0.01036031 -6 -0.75 C-3 -1 -3 -1 0 0 Z " fill="#6A9D94" transform="translate(256,291)"/>
<path d="M0 0 C0.99 0 1.98 0 3 0 C3 0.99 3 1.98 3 3 C2.34 3 1.68 3 1 3 C0.67 3.99 0.34 4.98 0 6 C-2.41793589 4.79103206 -2.79103206 4.41793589 -4 2 C-2.68 2 -1.36 2 0 2 C0 1.34 0 0.68 0 0 Z " fill="#CBDBD8" transform="translate(304,252)"/>
<path d="M0 0 C0.33 0 0.66 0 1 0 C1.0270043 1.45823212 1.04639787 2.91660675 1.0625 4.375 C1.07410156 5.18710937 1.08570313 5.99921875 1.09765625 6.8359375 C1 9 1 9 0 11 C-0.99 10.67 -1.98 10.34 -3 10 C-2.690625 9.46375 -2.38125 8.9275 -2.0625 8.375 C-0.82172561 5.6015043 -0.4090325 2.99957163 0 0 Z " fill="#0B3029" transform="translate(421,379)"/>
<path d="M0 0 C0.66 0.33 1.32 0.66 2 1 C1.34 1.66 0.68 2.32 0 3 C0.66 3.66 1.32 4.32 2 5 C-0.31 5.33 -2.62 5.66 -5 6 C-3.63016497 2.83884224 -3.0109362 2.0072908 0 0 Z " fill="#36645D" transform="translate(283,325)"/>
<path d="M0 0 C0.66 0.66 1.32 1.32 2 2 C-0.97 4.475 -0.97 4.475 -4 7 C-4.66 6.67 -5.32 6.34 -6 6 C-4.02 4.02 -2.04 2.04 0 0 Z " fill="#669088" transform="translate(324,251)"/>
<path d="M0 0 C0.99 0.33 1.98 0.66 3 1 C-0.465 3.97 -0.465 3.97 -4 7 C-4 5.68 -4 4.36 -4 3 C-3.01 3 -2.02 3 -1 3 C-0.67 2.01 -0.34 1.02 0 0 Z " fill="#3BAB9E" transform="translate(80,101)"/>
<path d="M0 0 C3.63 0 7.26 0 11 0 C11.33 0.99 11.66 1.98 12 3 C6.06 2.01 6.06 2.01 0 1 C0 0.67 0 0.34 0 0 Z " fill="#398C8C" transform="translate(314,73)"/>
<path d="M0 0 C-0.66 0 -1.32 0 -2 0 C-2.33 0.99 -2.66 1.98 -3 3 C-4.9375 2.625 -4.9375 2.625 -7 2 C-7.33 1.34 -7.66 0.68 -8 0 C-4.94736336 -0.98120464 -3.05263664 -0.98120464 0 0 Z " fill="#557779" transform="translate(237,351)"/>
<path d="M0 0 C0.66 0 1.32 0 2 0 C2 1.32 2 2.64 2 4 C0.35 4.33 -1.3 4.66 -3 5 C-1.125 1.125 -1.125 1.125 0 0 Z " fill="#3E7168" transform="translate(228,303)"/>
<path d="M0 0 C1.32 0 2.64 0 4 0 C4 0.66 4 1.32 4 2 C-0.38461538 5 -0.38461538 5 -3 5 C-1.125 1.125 -1.125 1.125 0 0 Z " fill="#CED7D7" transform="translate(337,298)"/>
<path d="M0 0 C0 0.66 0 1.32 0 2 C-2.35438733 3.42944945 -3.48032433 4.08661261 -6.25 3.625 C-6.8275 3.41875 -7.405 3.2125 -8 3 C-3.375 0 -3.375 0 0 0 Z " fill="#7CA19C" transform="translate(295,262)"/>
</svg>
